<?xml version="1.0" encoding="UTF-8"?>
<svg width="1312px" height="64px" viewBox="0 0 1312 64" version="1.1" xmlns="http://www.w3.org/2000/svg" xmlns:xlink="http://www.w3.org/1999/xlink">
    <!-- Generator: Sketch 58 (84663) - https://sketch.com -->
    <title>Group</title>
    <desc>Created with Sketch.</desc>
    <g id="IBM-Grid-templates" stroke="none" stroke-width="1" fill="none" fill-rule="evenodd" fill-opacity="0.1">
        <g id="xlg-1312px-16-column">
            <g id="Group">
                <rect id="Rectangle" fill="#FF0000" x="32" y="0" width="48" height="64"></rect>
                <rect id="Rectangle-Copy-3" fill="#00FF00" x="80" y="0" width="16" height="64"></rect>
                <rect id="Rectangle-Copy-18" fill="#00FF00" x="1200" y="0" width="16" height="64"></rect>
                <rect id="Rectangle-Copy-21" fill="#00FF00" x="1280" y="0" width="16" height="64"></rect>
                <rect id="Rectangle-Copy-22" fill="#808080" x="1296" y="0" width="16" height="64"></rect>
                <rect id="Rectangle-Copy-23" fill="#808080" x="0" y="0" width="16" height="64"></rect>
                <rect id="Rectangle-Copy-17" fill="#00FF00" x="1120" y="0" width="16" height="64"></rect>
                <rect id="Rectangle-Copy-16" fill="#00FF00" x="1040" y="0" width="16" height="64"></rect>
                <rect id="Rectangle-Copy-15" fill="#00FF00" x="960" y="0" width="16" height="64"></rect>
                <rect id="Rectangle-Copy-14" fill="#00FF00" x="880" y="0" width="16" height="64"></rect>
                <rect id="Rectangle-Copy-13" fill="#00FF00" x="800" y="0" width="16" height="64"></rect>
                <rect id="Rectangle-Copy-12" fill="#00FF00" x="720" y="0" width="16" height="64"></rect>
                <rect id="Rectangle-Copy-11" fill="#00FF00" x="640" y="0" width="16" height="64"></rect>
                <rect id="Rectangle-Copy-10" fill="#00FF00" x="560" y="0" width="16" height="64"></rect>
                <rect id="Rectangle-Copy-9" fill="#00FF00" x="480" y="0" width="16" height="64"></rect>
                <rect id="Rectangle-Copy-8" fill="#00FF00" x="400" y="0" width="16" height="64"></rect>
                <rect id="Rectangle-Copy-7" fill="#00FF00" x="320" y="0" width="16" height="64"></rect>
                <rect id="Rectangle-Copy-6" fill="#00FF00" x="240" y="0" width="16" height="64"></rect>
                <rect id="Rectangle-Copy-5" fill="#00FF00" x="160" y="0" width="16" height="64"></rect>
                <rect id="Rectangle-Copy-4" fill="#0000FF" x="96" y="0" width="16" height="64"></rect>
                <rect id="Rectangle-Copy-20" fill="#0000FF" x="16" y="0" width="16" height="64"></rect>
                <rect id="Rectangle-Copy-19" fill="#0000FF" x="1216" y="0" width="16" height="64"></rect>
                <rect id="Rectangle-Copy-18" fill="#0000FF" x="1136" y="0" width="16" height="64"></rect>
                <rect id="Rectangle-Copy-17" fill="#0000FF" x="1056" y="0" width="16" height="64"></rect>
                <rect id="Rectangle-Copy-16" fill="#0000FF" x="976" y="0" width="16" height="64"></rect>
                <rect id="Rectangle-Copy-15" fill="#0000FF" x="896" y="0" width="16" height="64"></rect>
                <rect id="Rectangle-Copy-14" fill="#0000FF" x="816" y="0" width="16" height="64"></rect>
                <rect id="Rectangle-Copy-13" fill="#0000FF" x="736" y="0" width="16" height="64"></rect>
                <rect id="Rectangle-Copy-12" fill="#0000FF" x="656" y="0" width="16" height="64"></rect>
                <rect id="Rectangle-Copy-11" fill="#0000FF" x="576" y="0" width="16" height="64"></rect>
                <rect id="Rectangle-Copy-10" fill="#0000FF" x="496" y="0" width="16" height="64"></rect>
                <rect id="Rectangle-Copy-9" fill="#0000FF" x="416" y="0" width="16" height="64"></rect>
                <rect id="Rectangle-Copy-8" fill="#0000FF" x="336" y="0" width="16" height="64"></rect>
                <rect id="Rectangle-Copy-7" fill="#0000FF" x="256" y="0" width="16" height="64"></rect>
                <rect id="Rectangle-Copy-6" fill="#0000FF" x="176" y="0" width="16" height="64"></rect>
                <rect id="Rectangle-Copy" fill="#FF0000" x="112" y="0" width="48" height="64"></rect>
                <rect id="Rectangle-Copy-14" fill="#FF0000" x="1152" y="0" width="48" height="64"></rect>
                <rect id="Rectangle-Copy-24" fill="#FF0000" x="1232" y="0" width="48" height="64"></rect>
                <rect id="Rectangle-Copy-13" fill="#FF0000" x="1072" y="0" width="48" height="64"></rect>
                <rect id="Rectangle-Copy-12" fill="#FF0000" x="992" y="0" width="48" height="64"></rect>
                <rect id="Rectangle-Copy-11" fill="#FF0000" x="912" y="0" width="48" height="64"></rect>
                <rect id="Rectangle-Copy-10" fill="#FF0000" x="832" y="0" width="48" height="64"></rect>
                <rect id="Rectangle-Copy-9" fill="#FF0000" x="752" y="0" width="48" height="64"></rect>
                <rect id="Rectangle-Copy-8" fill="#FF0000" x="672" y="0" width="48" height="64"></rect>
                <rect id="Rectangle-Copy-7" fill="#FF0000" x="592" y="0" width="48" height="64"></rect>
                <rect id="Rectangle-Copy-6" fill="#FF0000" x="512" y="0" width="48" height="64"></rect>
                <rect id="Rectangle-Copy-5" fill="#FF0000" x="432" y="0" width="48" height="64"></rect>
                <rect id="Rectangle-Copy-4" fill="#FF0000" x="352" y="0" width="48" height="64"></rect>
                <rect id="Rectangle-Copy-3" fill="#FF0000" x="272" y="0" width="48" height="64"></rect>
                <rect id="Rectangle-Copy-2" fill="#FF0000" x="192" y="0" width="48" height="64"></rect>
            </g>
        </g>
    </g>
</svg>