<?xml version="1.0" encoding="UTF-8"?>
<svg width="108px" height="24px" viewBox="0 0 108 24" version="1.1" xmlns="http://www.w3.org/2000/svg"
     xmlns:xlink="http://www.w3.org/1999/xlink">
    <!-- Generator: Sketch 54.1 (76490) - https://sketchapp.com -->
    <title>Fill 1</title>
    <desc>Created with Sketch.</desc>
    <g id="Page-1" stroke="none" stroke-width="1" fill="none" fill-rule="evenodd">
        <path d="M60.9341351,5.28218 C62.0039051,5.20086 63.2279651,5.65529 64.5960251,6.40032 L65.3314951,5.58234 L66.0618151,5.58234 L66.0618151,10.28811 L65.3314951,10.28811 C64.3543051,7.4503 62.9348051,6.08341 61.0781451,6.18147 C58.8820451,6.18147 57.7762751,8.1439 57.7762751,12.07594 C57.7762751,15.960138 59.0569051,17.930939 61.5924551,17.982361 C64.0868551,17.930939 65.4292151,16.439683 65.6246551,13.50142 L66.5041151,13.50142 C66.4063951,16.935971 64.6217451,18.67836 61.1552951,18.726195 C57.5294051,18.601824 55.3435851,16.977826 54.5978351,13.85181 C54.3663951,12.87 54.3509651,11.23643 54.7727051,9.95087 C55.6778851,7.16807 57.7094151,5.52494 60.9341351,5.28218 Z M100.448565,5.28218 L101.400065,5.28218 L106.244865,16.632219 C106.532865,17.48129 107.119165,17.908216 107.998665,17.908216 L107.998665,18.652051 L101.256065,18.652051 L101.256065,17.908216 L101.986365,17.908216 C102.768165,17.956052 103.133265,17.730032 103.086965,17.232548 C103.086965,17.129703 103.066465,16.932383 103.014965,16.632219 C103.066465,16.833126 103.040665,16.782899 102.942965,16.482735 L101.986365,14.320594 L98.4633551,14.320594 L98.8439451,13.2766 L101.549265,13.2766 L99.8622751,9.24411 L97.8873251,14.320594 L97.3010151,15.814241 C97.2187251,16.047436 97.0541451,16.460014 97.0078551,17.007724 C97.0541451,17.605661 97.4244451,17.908216 98.1084751,17.908216 L99.0599551,17.908216 L99.0599551,18.652051 L93.9219951,18.652051 L93.9219951,17.908216 C94.9506151,17.757537 95.7323651,16.933579 96.2723951,15.438737 L100.448565,5.28218 Z M27.0822451,5.507 L33.6756951,5.507 L33.6756951,6.25083 C32.3127751,6.203 31.6698851,6.62993 31.7676051,7.52564 L31.7676051,15.363396 C31.8653251,16.956301 32.7447951,17.826897 34.4111651,17.976382 C36.5609751,17.976382 37.6307451,16.884549 37.6307451,14.694903 L37.6307451,7.75046 C37.7798951,6.90259 37.0958651,6.40032 35.5837851,6.25083 L35.5837851,5.507 L40.3463051,5.507 L40.3463051,6.25083 C39.0759551,6.40032 38.4844951,6.90259 38.5873651,7.75046 L38.5873651,14.545419 C38.5873651,17.333001 36.9518551,18.726195 33.6756951,18.726195 C30.5024051,18.67836 28.8823251,17.453785 28.8360351,15.063232 L28.8360351,7.52564 C28.9337551,6.62993 28.3474451,6.203 27.0822451,6.25083 L27.0822451,5.507 Z M42.0589551,5.507 L48.8015551,5.507 C51.7845651,5.60506 53.3223451,6.77702 53.4200651,9.01928 C53.3223451,11.30819 51.8565651,12.52678 49.0227151,12.67627 L47.4592151,12.67627 L47.4592151,11.78175 L47.5569251,11.78175 C49.3158751,11.78175 50.1953451,10.88485 50.1953451,9.09462 C50.0976251,7.40366 49.4135951,6.50077 48.1432451,6.40032 C47.3100651,6.40032 46.8934651,6.87867 46.8934651,7.8258 L46.8934651,11.3321 L46.8831851,11.3321 L46.8831851,13.22637 L46.8934651,13.22637 L46.8934651,16.482735 C46.7957551,17.48129 47.4592151,17.956052 48.8787151,17.908216 L48.8787151,18.652051 L42.0589551,18.652051 L42.0589551,17.908216 C43.3807351,17.956052 43.9927651,17.529124 43.8950451,16.632219 L43.8950451,7.52564 C43.9927651,6.62993 43.3807351,6.2042 42.0589551,6.25083 L42.0589551,5.507 Z M67.6561751,5.507 L79.2384351,5.507 L79.3875851,10.21396 L78.5801251,10.21396 C77.8960851,7.67392 76.4303051,6.40032 74.1827751,6.40032 C73.0615751,6.30226 72.5421251,6.70527 72.6398351,7.60098 L72.6398351,11.3321 C74.2547751,11.48159 75.2268251,10.73895 75.5714051,9.09462 L76.3120151,9.09462 L76.3120151,14.394738 L75.5714051,14.394738 C75.2268251,12.75041 74.2547751,12.00777 72.6398351,12.15726 L72.6398351,16.564054 C72.5935551,17.408342 73.1078651,17.806568 74.1827751,17.757537 C76.6257451,17.706114 78.1892451,16.336838 78.8732751,13.6509 L79.6807451,13.6509 L79.5315951,18.652051 L67.6561751,18.652051 L67.6561751,17.908216 C68.9779551,17.956052 69.5899851,17.529124 69.4922551,16.632219 L69.4922551,7.52564 C69.5899851,6.62993 68.9779551,6.203 67.6561751,6.25083 L67.6561751,5.507 Z M81.2545351,5.507 L87.8531351,5.507 C90.9801451,5.55723 92.5642151,6.72918 92.6156451,9.01928 C92.5642151,11.05945 91.0572851,12.10584 88.0742851,12.15726 L88.0742851,12.22662 C89.8332351,12.3761 90.9184251,13.32563 91.3710151,15.063232 C91.7207551,17.482485 92.2762051,17.789826 92.9190851,17.883103 L92.9190851,18.652051 C92.9190851,18.652051 91.4481651,18.652051 91.1344351,18.652051 C89.2777751,18.652051 88.2954351,17.728836 88.3674451,15.589417 C88.4343051,13.63895 87.9199951,12.5806 86.6959351,12.40122 L86.6959351,11.62031 C88.5834551,11.50909 89.4783551,10.64687 89.3857851,9.01928 C89.3394951,7.37735 88.6606051,6.49958 87.3388251,6.40032 C86.5056451,6.40032 86.0941951,6.77702 86.0941951,7.52564 C86.0941951,10.46031 86.0941951,13.39618 86.0941951,16.332055 C85.9450451,17.480094 86.5570751,18.006279 87.9251451,17.908216 L87.9251451,18.652051 L81.2545351,18.652051 L81.2545351,17.908216 C82.5763151,17.956052 83.1883451,17.529124 83.0906251,16.632219 L83.0906251,7.52564 C83.1883451,6.62993 82.5763151,6.2042 81.2545351,6.25083 L81.2545351,5.507 Z M17.2537751,0 C17.6857951,0 17.9378051,0.01315 17.9378051,0.01315 C8.63393312,1.00812 7.32758612,7.20753 7.32758612,7.20753 C12.5426951,-1.65987 24.9015651,0.96268 24.9015651,0.96268 C16.0451451,0.93996 10.9637551,6.83562 11.0563351,11.5952 C11.1437651,15.400469 13.7976051,16.675271 15.6902651,16.707559 C19.8047551,16.77692 20.7510851,13.93433 22.5923151,11.05107 C22.1191451,12.0006 22.0574351,15.961334 20.5659351,18.789576 C18.8172751,22.114107 15.7365551,24.1710092 11.3289151,23.9892376 C8.16591112,23.8588881 4.90004112,22.587673 2.73993812,20.145698 C-3.09233888,13.54328 2.19991312,3.6821 2.19991312,3.6821 C0.718699416,9.83487 2.47249712,13.31367 2.47249712,13.31367 C2.15876812,0.80482 14.2296251,0.00478 17.2537751,0 Z"
              id="Fill-1" fill="#FFFFFF"></path>
    </g>
</svg>