<?xml version="1.0" encoding="UTF-8"?>
<svg width="140px" height="24px" viewBox="0 0 140 24" version="1.1" xmlns="http://www.w3.org/2000/svg"
     xmlns:xlink="http://www.w3.org/1999/xlink">
    <!-- Generator: Sketch 54.1 (76490) - https://sketchapp.com -->
    <title>Group</title>
    <desc>Created with Sketch.</desc>
    <g id="Page-1" stroke="none" stroke-width="1" fill="none" fill-rule="evenodd">
        <g id="Group" transform="translate(0.244635, 0.244586)" fill-rule="nonzero">
            <path d="M109.03296,8.53702965 L109.03296,6.89341182 L110.299916,6.89341182 L110.299916,8.53702965 L116.655238,8.53702965 L116.655238,9.63522073 L102.654158,9.63522073 L102.654158,8.53702965 L109.03296,8.53702965 Z M108.029229,20.9473227 L111.262308,20.9473227 C112.284406,17.6541118 112.943302,14.2588047 113.227121,10.8219522 L114.621261,10.8219522 C114.261906,14.2676938 113.524507,17.6632404 112.422497,20.9473227 L116.655238,20.9473227 L116.655238,22.0455137 L102.654158,22.0455137 L102.654158,20.9473227 L106.869039,20.9473227 C105.766948,17.6632497 105.029468,14.2677029 104.670035,10.8219522 L106.064175,10.8219522 C106.348075,14.2588134 107.007051,17.6541205 108.029229,20.9473227 Z M124.948914,18.16811 C125.662188,19.6222898 126.755283,20.8618077 128.117516,21.7522547 L128.117516,22.7910114 C126.442418,22.0074742 125.032809,20.7596458 124.052475,19.2017648 C122.596267,20.7358236 120.82073,21.9661368 118.823248,22.7910122 L118.823248,21.6282504 C122.133105,20.0969163 124.710714,17.3290205 126.002825,13.9186555 L127.319676,13.9186555 C126.756591,15.4691928 125.9519,16.9007537 124.948914,18.16811 Z M122.083842,8.70726146 L118.803681,8.70726146 L118.803681,7.60907038 L122.335014,7.60907038 L122.335014,6.16087675 L123.601969,6.16087675 L123.601969,7.60907038 L128.112134,7.60907038 L128.112134,8.70726146 L123.345984,8.70726146 C122.517502,11.1570988 121.071942,13.3554602 119.145368,15.08851 L119.145368,13.6711342 C120.46147,12.2382897 121.461806,10.5470688 122.083842,8.70726146 Z M128.995334,7.60907038 L130.263757,7.60907038 L130.263757,19.069636 L128.995334,19.069636 L128.995334,7.60907038 Z M130.995069,22.8073991 L130.994091,22.8073991 L130.266203,22.8073991 L130.266203,21.7735341 L130.832175,21.7735341 C131.015098,21.7739239 131.190663,21.701531 131.320147,21.5723223 C131.449631,21.4431136 131.522397,21.2677035 131.522397,21.08478 L131.522397,21.0825787 L131.522397,6.13152643 L132.820659,6.13152643 L132.820659,20.6961328 L132.823105,20.9793634 C132.823105,21.4641886 132.630509,21.9291567 132.287686,22.2719798 C131.944863,22.614803 131.479895,22.8073991 130.995069,22.8073991 Z M124.480277,10.5736971 L125.768512,10.5736971 C124.632725,14.2404349 122.144421,17.3376979 118.808573,19.2369328 L118.808573,18.0477558 C121.507266,16.2880009 123.511817,13.6464431 124.480277,10.5736971 Z M96.1536739,7.58436719 C96.3155951,7.12554219 96.41415,6.6467089 96.4465655,6.16112134 L97.726484,6.16112134 C97.6643362,6.64234849 97.5656802,7.11813536 97.431377,7.58436719 L100.531151,7.58436719 L100.531151,8.69062961 L94.1643335,8.69062961 L94.1643335,10.6279952 L100.18653,10.6279952 L100.18653,11.6618602 L94.1643335,11.6618602 L94.1643335,13.8166627 L100.509628,13.8166627 L100.509628,14.8505277 L86.4865348,14.8505277 L86.4865348,13.8166627 L92.8421017,13.8166627 L92.8421017,11.6618602 L86.8098775,11.6618602 L86.8098775,10.6279952 L92.8418571,10.6279952 L92.8418571,8.69062961 L86.5036558,8.69062961 L86.5036558,7.58436719 L89.5868081,7.58436719 C89.452626,7.11810475 89.3539688,6.64232739 89.2916916,6.16112134 L90.5716101,6.16112134 C90.6041249,6.64669594 90.7026796,7.12551621 90.8645092,7.58436719 L96.1536739,7.58436719 Z M100.509383,21.7911443 L100.509383,22.7751137 C99.2368023,22.5288157 95.4980609,21.5198985 93.5054189,18.9184819 C91.5049501,21.5301711 87.7466418,22.5356641 86.4884915,22.7775596 L86.4884915,21.7945685 C90.2959615,20.7580131 91.8263361,19.1767647 92.434866,18.1111035 L86.4865348,18.1111035 L86.4865348,17.0774832 L92.8056583,17.0774832 C92.8208227,16.9808717 92.8337857,16.8852386 92.8379437,16.8084386 C92.84308,16.721366 92.8452813,16.6536157 92.8467488,16.6029864 L92.8467488,15.1946602 L92.8619131,15.1946602 L93.4450061,15.1946602 L93.5658316,15.1946602 L94.14868,15.1946602 L94.1640889,15.1946602 L94.1640889,16.6032309 C94.1655564,16.6538602 94.1680023,16.7216106 94.1726494,16.8086832 C94.177052,16.8842602 94.190015,16.9798934 94.2049348,17.0777278 L100.509628,17.0777278 L100.509628,18.1113481 L94.5757271,18.1113481 C95.1837679,19.1757864 96.7112074,20.7548335 100.509383,21.7911443 Z M139.045618,3.97623454 C139.589708,4.9212531 139.265766,6.1283744 138.321644,6.67401798 C137.711285,7.02981964 136.956725,7.02981964 136.346367,6.67401798 C136.045869,6.50298275 135.796648,6.25460632 135.624594,5.9546906 C135.448183,5.65613568 135.356125,5.31529271 135.35824,4.96851989 C135.35794,4.26188696 135.734633,3.60876695 136.346432,3.25516772 C136.95823,2.9015685 137.712195,2.90120598 138.324334,3.25421671 C138.623613,3.42786969 138.87227,3.67677887 139.045618,3.97623454 Z M138.76679,5.79350843 L138.76679,5.7922855 C138.91352,5.54297424 138.990482,5.258782 138.989608,4.96949824 C138.991245,4.67733605 138.914285,4.39010951 138.76679,4.13790588 C138.623789,3.88555151 138.415216,3.67655666 138.163152,3.53304474 C137.650509,3.23863861 137.019869,3.23954343 136.508073,3.53541939 C135.996277,3.83129535 135.680798,4.37735358 135.680115,4.96851989 C135.677168,5.26037421 135.754411,5.54743529 135.903422,5.79840015 C136.047944,6.04738441 136.255346,6.25402781 136.504859,6.39763582 C136.632057,6.47046821 136.768106,6.52661419 136.909649,6.56468805 C137.048116,6.60079458 137.190664,6.61888026 137.333761,6.61849696 C137.625326,6.62014416 137.911909,6.54289948 138.163152,6.39494537 C138.413944,6.25128725 138.622217,6.04377366 138.76679,5.79350843 Z M136.540079,6.05448173 L136.540079,3.96204861 L137.382189,3.96204861 C137.526161,3.9558897 137.670103,3.97492741 137.807524,4.01830339 C137.905321,4.05648795 137.987307,4.12666286 138.040125,4.21739638 C138.098161,4.31223308 138.128335,4.42148836 138.127198,4.53266772 C138.130918,4.67200256 138.079194,4.80711928 137.983381,4.90835179 C137.861401,5.02197183 137.704253,5.09049208 137.53799,5.10255307 C137.598247,5.12934962 137.654473,5.16441858 137.705042,5.2067467 C137.792912,5.28957939 137.870068,5.38308597 137.934709,5.48508555 L138.298897,6.05448173 L137.950118,6.05448173 L137.673491,5.61936326 C137.592777,5.49340147 137.526739,5.39752377 137.473419,5.33099638 C137.434334,5.27706237 137.386852,5.22974564 137.332783,5.19084861 C137.294148,5.16551558 137.251585,5.14675483 137.206821,5.13532759 C137.155808,5.12711757 137.104133,5.12375988 137.052487,5.12529956 L136.817195,5.12529956 L136.817195,6.05472631 L136.540079,6.05448173 Z M136.817195,4.88536071 L137.326423,4.88536071 C137.426897,4.88914861 137.527289,4.87591747 137.623351,4.84622696 C137.690208,4.82376913 137.747577,4.77949308 137.786245,4.72050976 C137.822859,4.66473545 137.842175,4.59938502 137.841766,4.53266772 C137.84434,4.43913495 137.804846,4.34937488 137.734148,4.28808173 C137.635942,4.2161155 137.514999,4.18214372 137.393684,4.19244861 L136.817195,4.19244861 L136.817195,4.88536071 Z"
                  id="Combined-Shape" fill="#474645"></path>
            <path d="M34.6993662,9.88567643 C32.4430694,9.88723094 30.5041902,11.4872528 30.074499,13.7022569 C29.6448079,15.917261 30.8447837,18.1261929 32.9368379,18.971289 C35.028892,19.8163851 37.4264431,19.0606928 38.6557892,17.1687134 L41.1772261,19.6950421 C38.9943825,22.4785407 35.2794917,23.5599134 31.9437556,22.3828257 C28.6080194,21.205738 26.3944984,18.0323952 26.4419837,14.4953886 C26.489469,10.9583819 28.7873829,7.84560634 32.1535166,6.75849315 C35.5196503,5.67137997 39.2041719,6.8520918 41.3115038,9.69318726 L38.7744134,12.2349249 C37.9325549,10.7808162 36.3795917,9.88553905 34.6993662,9.88567643 Z M63.9714172,9.88567643 C61.7151204,9.88723094 59.7762412,11.4872528 59.34655,13.7022569 C58.9168588,15.917261 60.1168347,18.1261929 62.2088888,18.971289 C64.300943,19.8163851 66.6984941,19.0606928 67.9278401,17.1687134 L70.4490325,19.6950421 C68.2660974,22.4786454 64.551047,23.5600337 61.2151955,22.3828555 C57.8793441,21.2056774 55.6657927,18.0321636 55.7133663,14.4950193 C55.76094,10.9578749 58.0590411,7.84504157 61.4253456,6.75800567 C64.7916502,5.67096977 68.4762732,6.85188162 70.5835548,9.69318726 L68.0464643,12.2349249 C67.2045323,10.7808899 65.6516158,9.88563969 63.9714172,9.88567643 Z M43.0380363,0 L46.530235,0 L46.530235,22.8504459 L43.0380363,22.8504459 L43.0380363,0 Z M53.405058,2.2445656 C53.405058,3.45624317 52.4227992,4.43850191 51.2111217,4.43850191 C49.9994441,4.43850191 49.0171854,3.45624317 49.0171854,2.2445656 C49.0171854,1.03288804 49.9994441,0.0506292994 51.2111217,0.0506292994 C51.7929897,0.0506292994 52.351026,0.281775496 52.7624689,0.693218365 C53.1739118,1.10466123 53.405058,1.66269752 53.405058,2.2445656 Z M49.4650223,6.32621656 L52.957221,6.32621656 L52.957221,22.8626752 L49.4650223,22.8626752 L49.4650223,6.32621656 Z M82.9530022,22.8073991 L78.0079627,22.8073991 L69.7654149,14.5648513 L78.0079627,6.3223035 L82.9530022,6.3223035 L74.7104544,14.5648513 L82.9530022,22.8073991 Z"
                  id="Combined-Shape" fill="#004295"></path>
            <path d="M22.862627,14.7519593 C22.8618508,10.7957519 20.007233,7.41717094 16.1066729,6.75595414 C16.5475753,9.34633558 15.7054754,11.9897297 13.8474561,13.8477489 C11.9894369,15.7057682 9.34604284,16.5478681 6.75566139,16.1069657 C7.4599389,20.2634662 11.2311456,23.1873663 15.4320514,22.833963 C19.6329573,22.4805598 22.8626687,18.967704 22.862627,14.7519593 L22.862627,14.7519593 Z"
                  id="Path_1" fill="#004295"></path>
            <path d="M14.7516665,6.64099872 C15.2057464,6.64156468 15.6589874,6.68001653 16.1066729,6.75595414 C15.4170051,2.68520495 11.7792251,-0.217704378 7.65692615,0.0131471589 C3.53462725,0.243998694 0.243705943,3.53492 0.0128544072,7.65721889 C-0.217997129,11.7795178 2.6849122,15.4172979 6.75566139,16.1069657 C6.3549463,13.7523884 7.0130899,11.3409351 8.55439053,9.51638059 C10.0956912,7.69182613 12.3632352,6.63992111 14.7516665,6.64148789 L14.7516665,6.64099872 Z"
                  id="Path_2" fill="#0092E5"></path>
            <path d="M16.222362,8.11096051 C16.2219113,7.6568757 16.1834586,7.20362512 16.1074066,6.75595414 C13.5170021,6.31493431 10.8735351,7.15699553 9.01548583,9.01504482 C7.15743654,10.8730942 6.31537532,13.5165611 6.75639515,16.1069657 C9.11095786,16.5075916 11.5223612,15.8494153 13.3468932,14.3081336 C15.1714253,12.7668519 16.2233542,10.4993626 16.2218729,8.11096051 L16.222362,8.11096051 Z"
                  id="Path_3" fill="#006ABC"></path>
        </g>
    </g>
</svg>