<?xml version="1.0" encoding="UTF-8"?>
<svg width="72px" height="45px" viewBox="0 0 72 45" version="1.1" xmlns="http://www.w3.org/2000/svg"
     xmlns:xlink="http://www.w3.org/1999/xlink">
    <!-- Generator: Sketch 58 (84663) - https://sketch.com -->
    <title>Group</title>
    <desc>Created with Sketch.</desc>
    <defs>
        <polygon id="path-1" points="0 44.2 71 44.2 71 0 0 0"></polygon>
    </defs>
    <g id="Page-1" stroke="none" stroke-width="1" fill="none" fill-rule="evenodd">
        <g id="爱齐logo" transform="translate(-58.000000, -36.000000)">
            <g id="Group" transform="translate(58.276000, 35.890000)">
                <mask id="mask-2" fill="white">
                    <use xlink:href="#path-1"></use>
                </mask>
                <g id="Clip-28"></g>
                <path d="M22.3134,20.9716 L10.5094,20.9716 C13.0694,23.9016 15.3574,26.0056 17.3724,27.2846 C19.7504,26.0056 21.7644,24.2656 23.4114,22.0696 C23.9604,21.3386 23.5934,20.9716 22.3134,20.9716 L22.3134,20.9716 Z M27.2544,2.3046 C20.2994,3.2206 12.1564,3.5876 2.8224,3.4026 C1.9074,2.8536 1.9074,2.3046 2.8224,1.7556 C11.6074,1.9406 19.6584,1.5736 26.9804,0.6576 C28.0784,1.0246 28.1674,1.5736 27.2544,2.3046 L27.2544,2.3046 Z M4.1954,14.9326 L10.2344,14.9326 L10.5094,12.1876 C11.0584,11.2736 11.6074,11.2736 12.1564,12.1876 L11.8814,14.9326 L25.6074,14.9326 C26.5214,15.4816 26.5214,16.0306 25.6074,16.5796 L11.6074,16.5796 L10.7834,19.3246 L22.8624,19.3246 C25.6074,19.3246 26.3384,20.4226 25.0584,22.6186 C23.0444,25.3646 21.0304,27.1966 19.0194,28.1096 C22.1284,29.5716 25.8814,30.4876 30.2734,30.8546 C31.0054,31.5856 30.9134,32.1346 29.9994,32.5006 C25.2404,32.1346 21.0304,31.0356 17.3724,29.2066 C13.1624,30.8546 9.0444,31.9516 5.0194,32.5006 C4.1034,32.1346 4.0114,31.5856 4.7444,30.8546 C8.7704,30.3056 12.4304,29.3896 15.7254,28.1096 C13.5284,26.6466 11.4224,24.7256 9.4114,22.3446 C7.2154,25.4556 4.6524,27.7446 1.7254,29.2066 C0.8094,29.2066 0.5344,28.7476 0.9014,27.8346 C6.0244,24.7256 9.0444,20.9716 9.9604,16.5796 L4.1954,16.5796 C3.2794,16.0306 3.2794,15.4816 4.1954,14.9326 L4.1954,14.9326 Z M27.2544,9.4426 C29.9994,9.4426 30.6384,11.5486 29.1764,15.7566 C28.2604,16.3046 27.7104,16.1226 27.5284,15.2066 C28.8094,12.6466 28.6264,11.2736 26.9804,11.0896 L3.0974,11.0896 C2.1814,11.0896 1.7254,11.6386 1.7254,12.7366 L1.7254,15.2066 C1.1754,16.1226 0.6264,16.1226 0.0774,15.2066 L0.0774,12.4616 C0.0774,10.4506 0.9014,9.4426 2.5484,9.4426 L7.2154,9.4426 C6.6664,7.6136 6.1174,6.4226 5.5674,5.8736 C5.5674,4.9606 6.0244,4.6856 6.9404,5.0506 C7.6714,5.9656 8.3134,7.4306 8.8624,9.4426 L14.6264,9.4426 C14.2604,7.9796 13.7104,6.6076 12.9804,5.3246 C12.9804,4.4106 13.4364,4.1366 14.3524,4.5006 C15.4504,6.3326 16.0894,7.9796 16.2734,9.4426 L20.3914,9.4426 C21.4894,7.9796 22.4034,6.2406 23.1364,4.2266 C24.0504,3.4956 24.5994,3.6776 24.7834,4.7756 C24.0504,6.6076 23.2274,8.1616 22.3134,9.4426 L27.2544,9.4426 Z"
                      id="Fill-1" fill="#1D97D5" mask="url(#mask-2)"></path>
                <path d="M61.4222,17.6776 L61.4222,32.2266 C61.9712,33.1406 62.5212,33.1406 63.0692,32.2266 L63.0692,17.6776 C62.5212,16.7636 61.9712,16.7636 61.4222,17.6776"
                      id="Fill-3" fill="#1D97D5" mask="url(#mask-2)"></path>
                <path d="M49.8929,17.6776 C49.3439,16.7636 48.7949,16.7636 48.2459,17.6776 L48.2459,20.9716 C48.4279,25.7306 47.1479,29.2066 44.4029,31.4036 C44.0359,32.1346 44.3099,32.5906 45.2259,32.7756 C48.5199,30.5796 50.0749,26.6466 49.8929,20.9716 L49.8929,17.6776 Z"
                      id="Fill-5" fill="#1D97D5" mask="url(#mask-2)"></path>
                <path d="M55.932,11.3636 C52.82,9.5346 50.442,7.6136 48.795,5.5986 L61.971,5.5986 C60.14,8.1616 58.128,10.0836 55.932,11.3636 M70.756,15.7556 C66.545,15.2066 62.154,14.0186 57.579,12.1876 C60.14,10.5406 62.336,8.3436 64.167,5.5986 L69.658,5.5986 C70.389,5.0506 70.389,4.5006 69.658,3.9516 L58.247,3.9516 C58.37,3.6476 58.442,3.3156 58.442,2.9676 C58.442,1.5136 57.263,0.3356 55.81,0.3356 C54.357,0.3356 53.178,1.5136 53.178,2.9676 C53.178,3.3156 53.249,3.6476 53.372,3.9516 L40.56,3.9516 C39.826,4.5006 39.826,5.0506 40.56,5.5986 L46.599,5.5986 C49.344,8.7106 51.996,10.9996 54.56,12.4616 C50.716,14.4756 45.866,15.6666 40.01,16.0306 C39.094,16.7636 39.187,17.3136 40.285,17.6776 C46.506,17.1286 51.815,15.7556 56.206,13.5596 C61.697,15.7556 66.453,17.0386 70.481,17.4036 C71.395,17.0386 71.487,16.4896 70.756,15.7556"
                      id="Fill-7" fill="#1D97D5" mask="url(#mask-2)"></path>
                <path d="M0.6903,41.4481 L2.5953,41.4481 L3.0033,40.8931 L3.0033,40.1451 C2.8293,39.9441 2.6953,39.7771 2.5153,39.5701 L0.6903,39.5701 L0.6903,39.3021 L2.6353,39.3021 L3.2703,40.0451 L3.2703,40.9731 L2.8293,41.5751 C2.9763,41.7421 3.1363,41.9161 3.2703,42.0761 L3.2703,43.1731 L2.6353,43.8871 L0.6903,43.8871 L0.6903,43.6201 L2.5153,43.6201 L3.0033,43.0791 L3.0033,42.1701 L2.6023,41.7161 L0.6903,41.7161 L0.6903,41.4481 Z"
                      id="Fill-9" fill="#1D97D5" mask="url(#mask-2)"></path>
                <path d="M4.2382,43.62 L6.3432,43.62 C6.5512,43.427 6.7242,43.26 6.9382,43.065 L6.9382,40.165 C6.7312,39.965 6.5442,39.791 6.3372,39.584 L4.2382,39.584 L4.2382,43.62 Z M3.9712,39.316 L6.4442,39.316 L7.2062,40.058 L7.2062,43.185 L6.4442,43.888 L3.9712,43.888 L3.9712,39.316 Z"
                      id="Fill-11" fill="#1D97D5" mask="url(#mask-2)"></path>
                <path d="M13.9281,39.3827 L13.3331,39.3827 L13.3331,41.6217 L12.6981,42.5647 C13.0391,43.0657 13.3861,43.5727 13.7271,44.0747 L13.5201,44.2017 L12.5511,42.7787 L11.5951,44.2017 L11.3881,44.0747 L12.4111,42.5647 L11.7761,41.6217 L11.7761,40.3387 L12.0161,40.3387 L12.0161,41.5487 C12.1971,41.8167 12.3711,42.0827 12.5511,42.3507 L13.0931,41.5487 L13.0931,39.3827 L11.7221,39.3827 L11.3881,40.0187 L11.1751,39.9107 L11.5351,39.2297 L11.5351,38.3667 L11.7761,38.3667 L11.7761,39.1427 L13.9281,39.1427 L13.9281,39.3827 Z M10.7201,41.0607 L10.2251,40.5387 L10.3921,40.3717 L10.8941,40.8937 L10.7201,41.0607 Z M10.2251,39.0417 L10.7201,38.5277 L10.8941,38.6947 L10.3921,39.2087 L10.2251,39.0417 Z M10.3591,42.7047 L10.3591,42.0757 L8.7151,42.0757 L8.7151,42.7047 L9.5371,43.1527 L10.3591,42.7047 Z M8.1941,40.8937 L8.6881,40.3717 L8.8551,40.5387 L8.3671,41.0607 L8.1941,40.8937 Z M8.6881,39.2087 L8.1941,38.6947 L8.3671,38.5277 L8.8551,39.0417 L8.6881,39.2087 Z M8.7151,41.3277 L8.7151,41.8357 L11.1481,41.8357 L11.1481,42.0757 L10.5991,42.0757 L10.5991,42.8517 L9.7911,43.2857 L10.9941,43.9347 L10.8871,44.1487 L9.5371,43.4267 L8.1941,44.1487 L8.0801,43.9347 L9.2831,43.2857 L8.4741,42.8517 L8.4741,42.0757 L7.9401,42.0757 L7.9401,41.8357 L8.4741,41.8357 L8.4741,41.3277 L8.7151,41.3277 Z M11.1481,39.9037 L9.6641,39.9037 L9.6641,41.3277 L9.4231,41.3277 L9.4231,39.9037 L7.9401,39.9037 L7.9401,39.6637 L9.4231,39.6637 L9.4231,38.3607 L9.6641,38.3607 L9.6641,39.6637 L11.1481,39.6637 L11.1481,39.9037 Z"
                      id="Fill-13" fill="#1D97D5" mask="url(#mask-2)"></path>
                <path d="M14.8553,40.5057 L14.8553,39.2627 L17.4953,39.2627 L17.4953,38.3407 L17.7353,38.3407 L17.7353,39.2627 L20.3763,39.2627 L20.3763,40.4727 L20.1353,40.4727 L20.1353,39.5037 L15.0963,39.5037 L15.0963,40.5057 L14.8553,40.5057 Z M15.8113,40.5197 L19.1263,40.5197 L19.1263,41.0207 L17.9223,42.1157 L20.6093,42.1157 L20.6093,42.3577 L17.8563,42.3577 L17.8563,44.1147 L16.4453,44.1147 L16.4453,43.8737 L17.6153,43.8737 L17.6153,42.3577 L14.6143,42.3577 L14.6143,42.1157 L17.6153,42.1157 L17.6153,42.0697 L18.8853,40.9067 L18.8853,40.7597 L15.8113,40.7597 L15.8113,40.5197 Z"
                      id="Fill-15" fill="#1D97D5" mask="url(#mask-2)"></path>
                <path d="M27.1244,43.3134 L26.4364,44.1084 L25.0254,44.1084 L25.0254,41.2744 L23.5414,42.6254 L23.3884,42.4444 L25.0254,40.9544 L25.0254,38.3674 L25.2664,38.3674 L25.2664,40.7334 L26.8634,39.2764 L27.0234,39.4574 L25.2664,41.0604 L25.2664,43.8684 L26.3294,43.8684 L26.9434,43.1524 L27.1244,43.3134 Z M23.4614,38.6814 L22.8204,39.3894 L22.8204,44.3484 L22.5794,44.3484 L22.5794,39.6574 L21.6444,40.6864 L21.4634,40.5334 L23.2814,38.5274 L23.4614,38.6814 Z"
                      id="Fill-17" fill="#1D97D5" mask="url(#mask-2)"></path>
                <path d="M33.7323,40.8739 L30.9723,39.1959 L28.2113,40.8739 L28.0913,40.6659 L30.8523,38.9889 L30.8523,38.3529 L31.0923,38.3529 L31.0923,38.9889 L33.8523,40.6659 L33.7323,40.8739 Z M33.3173,42.5439 L31.0923,42.5439 L31.0923,43.8679 L33.9733,43.8679 L33.9733,44.1079 L27.9783,44.1079 L27.9783,43.8679 L30.8523,43.8679 L30.8523,42.5439 L28.6323,42.5439 L28.6323,42.3039 L30.8523,42.3039 L30.8523,40.9539 L29.2083,40.9539 L29.2083,40.7129 L32.7363,40.7129 L32.7363,40.9539 L31.0923,40.9539 L31.0923,42.3039 L33.3173,42.3039 L33.3173,42.5439 Z"
                      id="Fill-19" fill="#1D97D5" mask="url(#mask-2)"></path>
                <path d="M37.6469,43.1522 L38.2679,43.7872 L38.1009,43.9552 L37.4799,43.3192 L37.6469,43.1522 Z M36.9789,38.3742 L36.9789,38.7812 L40.2129,38.7812 L40.2129,39.8442 L39.9729,39.8442 L39.9729,39.0222 L36.9119,39.0222 L36.3709,39.7982 L36.1839,39.6642 L36.7379,38.8682 L36.7379,38.3742 L36.9789,38.3742 Z M40.2129,41.0602 L38.2149,40.1382 L36.2099,41.0602 L36.1169,40.8462 L38.0939,39.9372 L38.0939,39.3232 L38.3349,39.3232 L38.3349,39.9312 L40.3069,40.8462 L40.2129,41.0602 Z M34.9269,40.7262 L35.5619,40.0982 L35.7289,40.2652 L35.1009,40.8932 L34.9269,40.7262 Z M35.5619,39.4102 L34.9269,38.7812 L35.1009,38.6142 L35.7289,39.2432 L35.5619,39.4102 Z M40.6609,41.7562 L36.2569,41.7562 L36.0029,42.4702 L39.6119,42.4702 L39.6119,43.8542 L40.6609,43.8542 L40.6609,44.0942 L39.3719,44.0942 L39.3719,42.7122 L35.9229,42.7122 L35.6089,43.6132 L35.6089,43.8542 L37.0859,43.8542 L37.0859,44.0942 L35.3679,44.0942 L35.3679,43.5732 L36.0029,41.7562 L34.6529,41.7562 L34.6529,41.5152 L40.6609,41.5152 L40.6609,41.7562 Z"
                      id="Fill-21" fill="#1D97D5" mask="url(#mask-2)"></path>
                <polygon id="Fill-23" fill="#1D97D5" mask="url(#mask-2)"
                         points="42.0697 41.6083 42.3367 41.3543 42.5967 41.6083 42.3367 41.8763"></polygon>
                <path d="M49.7679,40.8739 L47.0069,39.1959 L44.2469,40.8739 L44.1269,40.6659 L46.8869,38.9889 L46.8869,38.3529 L47.1269,38.3529 L47.1269,38.9889 L49.8879,40.6659 L49.7679,40.8739 Z M49.3529,42.5439 L47.1269,42.5439 L47.1269,43.8679 L50.0079,43.8679 L50.0079,44.1079 L44.0129,44.1079 L44.0129,43.8679 L46.8869,43.8679 L46.8869,42.5439 L44.6679,42.5439 L44.6679,42.3039 L46.8869,42.3039 L46.8869,40.9539 L45.2439,40.9539 L45.2439,40.7129 L48.7719,40.7129 L48.7719,40.9539 L47.1269,40.9539 L47.1269,42.3039 L49.3529,42.3039 L49.3529,42.5439 Z"
                      id="Fill-25" fill="#1D97D5" mask="url(#mask-2)"></path>
                <path d="M53.515,43.868 L56.035,43.868 L56.035,42.123 L53.515,42.123 L53.515,43.868 Z M53.275,44.108 L56.276,44.108 L56.276,41.882 L53.275,41.882 L53.275,44.108 Z M56.496,39.356 L54.892,39.356 L54.892,40.88 L56.67,40.88 L56.67,41.121 L52.88,41.121 L52.88,40.88 L54.652,40.88 L54.652,39.356 L53.656,39.356 L53.068,40.245 L52.867,40.111 L53.475,39.203 L53.475,38.421 L53.716,38.421 L53.716,39.116 L54.652,39.116 L54.652,38.341 L54.892,38.341 L54.892,39.116 L56.496,39.116 L56.496,39.356 Z M51.397,38.388 L51.397,39.33 L52.767,39.33 L52.767,39.57 L51.35,39.57 L50.955,40.392 L50.742,40.292 L51.156,39.43 L51.156,38.388 L51.397,38.388 Z M52.821,42.404 L51.891,42.404 L51.891,43.868 L52.76,43.868 L52.76,44.108 L51.651,44.108 L51.651,42.404 L50.715,42.404 L50.715,42.163 L51.651,42.163 L51.651,41.074 L50.769,41.074 L50.769,40.833 L52.774,40.833 L52.774,41.074 L51.891,41.074 L51.891,42.163 L52.821,42.163 L52.821,42.404 Z"
                      id="Fill-27" fill="#1D97D5" mask="url(#mask-2)"></path>
                <path d="M60.6117,39.537 L59.9697,38.889 L60.1367,38.715 L60.7787,39.37 L60.6117,39.537 Z M63.0977,44.175 L60.3707,42.27 L57.6507,44.175 L57.5167,43.981 L60.1637,42.13 L58.2927,40.813 L58.2927,38.762 L58.5327,38.762 L58.5327,40.693 L60.3707,41.983 L62.2157,40.693 L62.2157,38.762 L62.4567,38.762 L62.4567,40.813 L60.5777,42.13 L63.2307,43.981 L63.0977,44.175 Z"
                      id="Fill-29" fill="#1D97D5" mask="url(#mask-2)"></path>
                <path d="M68.222,39.4432 L68.857,38.8012 L69.024,38.9682 L68.389,39.6102 L68.222,39.4432 Z M64.861,41.0932 L64.861,43.8682 L69.251,43.8682 L69.251,41.0932 L69.492,41.0932 L69.492,44.1082 L64.619,44.1082 L64.619,41.0932 L64.861,41.0932 Z M65.155,38.6942 L65.155,40.3122 L66.939,40.3122 L66.939,38.3402 L67.179,38.3402 L67.179,40.3122 L70.067,40.3122 L70.067,40.5522 L67.179,40.5522 L67.179,41.5352 L68.669,42.9712 L68.502,43.1392 L67.059,41.7492 L65.622,43.1392 L65.455,42.9712 L66.939,41.5352 L66.939,40.5522 L64.051,40.5522 L64.051,40.3122 L64.913,40.3122 L64.913,38.6942 L65.155,38.6942 Z"
                      id="Fill-30" fill="#1D97D5" mask="url(#mask-2)"></path>
            </g>
        </g>
    </g>
</svg>