<?xml version="1.0" encoding="UTF-8"?>
<svg width="424px" height="106px" viewBox="0 0 424 106" version="1.1" xmlns="http://www.w3.org/2000/svg" xmlns:xlink="http://www.w3.org/1999/xlink">
    <!-- Generator: Sketch 58 (84663) - https://sketch.com -->
    <title>编组 2</title>
    <desc>Created with Sketch.</desc>
    <g id="页面-1" stroke="none" stroke-width="1" fill="none" fill-rule="evenodd">
        <g id="Artboard-3" transform="translate(-228.000000, -323.000000)">
            <g id="编组" transform="translate(0.000000, -0.126000)">
                <g id="编组-2" transform="translate(228.769743, 323.583685)">
                    <path d="M26.4814575,45.512515 C33.6494575,18.074515 62.4784575,0.276514998 105.522457,5.582515 C68.4464575,8.279515 46.6114575,47.408515 52.9974575,68.269515 C55.2064575,75.454515 62.0614575,81.300515 70.2384575,80.848515 C88.2804575,79.856515 85.4794575,63.762515 95.3624575,62.579515 C92.4224575,67.260515 94.0744575,70.966515 92.8214575,76.655515 C89.8644575,90.261515 80.4174575,100.404515 64.5844575,103.848515 C32.5714575,111.626515 0.244457489,87.825515 0.00145748909,53.515515 C-0.0855425109,41.632515 3.72545749,30.305515 10.5974575,21.484515 C7.62145749,31.471515 6.97745749,42.101515 10.5104575,53.271515 C9.29245749,20.858515 37.8604575,-4.073485 69.0384575,0.554514998 C39.0254575,5.808515 27.4034575,31.749515 26.4814575,45.512515 Z" id="Fill-1505" fill="#C5242B"></path>
                    <polygon id="Fill-1507" fill="#1A1919" points="392.736257 73.384315 402.775257 73.384315 402.775257 17.987315 392.736257 17.987315"></polygon>
                    <path d="M363.055057,22.946115 L363.055057,22.946115 C358.826057,29.888115 353.799057,36.204115 348.092057,41.702115 L346.822057,42.937115 L380.209057,42.937115 L379.427057,41.806115 C375.651057,36.413115 370.101057,29.506115 364.203057,22.842115 L363.559057,22.111115 L363.055057,22.946115 Z M359.244057,97.307115 C347.640057,97.307115 344.473057,94.280115 344.473057,83.249115 L344.473057,45.060115 L343.308057,45.982115 C342.821057,46.382115 342.298057,46.765115 341.794057,47.165115 C341.428057,47.443115 341.063057,47.721115 340.698057,48.000115 L333.182057,40.223115 C344.630057,32.237115 354.982057,19.467115 360.462057,6.592115 L370.032057,9.480115 C369.823057,9.949115 369.614057,10.419115 369.406057,10.889115 C369.075057,11.620115 368.744057,12.368115 368.431057,13.081115 L368.257057,13.516115 L368.570057,13.847115 C375.686057,21.328115 385.029057,31.576115 389.692057,38.500115 L382.263057,45.529115 L382.263057,46.243115 C381.445057,63.172115 380.401057,70.061115 378.296057,72.514115 C376.817057,74.341115 374.990057,75.246115 371.997057,75.698115 C370.275057,75.907115 367.701057,76.029115 364.551057,76.029115 C363.699057,76.029115 362.811057,76.029115 361.889057,76.011115 L359.505057,67.469115 C362.359057,67.764115 364.951057,67.764115 366.274057,67.764115 C367.701057,67.764115 368.761057,67.538115 369.649057,66.390115 C370.449057,65.416115 371.284057,63.067115 372.015057,52.524115 L372.067057,51.758115 L354.599057,51.758115 L354.599057,83.145115 C354.599057,87.860115 355.974057,88.573115 360.654057,88.573115 L374.328057,88.573115 C379.027057,88.573115 379.740057,85.563115 380.296057,76.342115 L389.257057,80.083115 C387.935057,93.584115 384.890057,97.307115 375.321057,97.307115 L359.244057,97.307115 Z" id="Fill-1509" fill="#1A1919"></path>
                    <path d="M422.382757,8.435815 L422.382757,85.649815 C422.382757,92.208815 421.060757,94.993815 417.180757,96.663815 C413.336757,98.437815 407.437757,98.803815 397.956757,98.820815 L394.441757,88.729815 C398.442757,88.886815 403.174757,88.973815 408.499757,88.973815 C410.221757,88.886815 411.926757,88.433815 411.926757,85.649815 L411.926757,8.435815 L422.382757,8.435815 Z M281.385757,39.109315 L281.385757,85.754315 C281.385757,92.349315 279.976757,95.115315 275.818757,96.750315 C271.468757,98.525315 264.579757,98.716315 256.680757,98.716315 L253.148757,88.103315 C256.87381,88.2349992 261.051206,88.3047554 264.011016,88.3117334 L264.492757,88.312315 C265.640757,88.312315 266.544757,88.294315 267.049757,88.277315 L267.067757,88.277315 C268.668757,88.277315 270.355757,87.947315 270.355757,85.545315 L270.355757,39.109315 L281.385757,39.109315 Z M247.494257,50.506115 L258.351257,53.080115 C254.157257,65.468115 247.564257,77.769115 240.952257,85.511115 L231.714257,79.300115 C238.151257,72.410115 244.118257,61.519115 247.494257,50.506115 Z M300.333257,50.331115 C304.474257,56.595115 313.591257,70.879115 317.384257,80.552115 L307.049257,84.989115 C303.865257,76.168115 296.610257,63.084115 290.903257,54.124115 L300.333257,50.331115 Z M250.886857,6.470415 L261.847857,9.323415 C260.456857,12.942415 259.046857,16.282415 257.533857,19.484415 L257.045857,20.510415 L315.974857,20.510415 C315.173857,23.868415 312.389857,33.141415 310.998857,37.839415 C310.685857,38.883415 310.423857,39.718415 310.267857,40.257415 L298.959857,40.257415 C300.124857,36.290415 301.707857,30.827415 301.707857,30.827415 L251.826857,30.636415 L251.617857,31.001415 C247.407857,38.396415 243.283857,44.346415 239.369857,48.713415 L229.730857,42.119415 C238.098857,33.959415 245.927857,20.736415 250.886857,6.470415 Z M200.570657,8.018415 L203.406657,16.178415 C198.308657,16.839415 193.628657,17.361415 189.104657,17.779415 L189.104657,17.779415 L189.035657,17.779415 L189.052657,17.761415 L187.904657,17.883415 C187.608657,17.918415 187.295657,17.935415 186.999657,17.970415 C160.742517,20.238135 130.441133,20.6676494 129.239581,20.6839229 L129.202657,20.684415 L127.253657,12.942415 C149.488657,12.490415 180.040657,10.958415 200.570657,8.018415 L200.570657,8.018415 Z" id="形状结合" fill="#1A1919"></path>
                    <path d="M173.724957,80.552515 L173.724957,80.552515 L173.411957,80.709515 L173.097957,80.570515 C168.400957,78.429515 160.484957,72.062515 160.484957,72.062515 L185.015957,72.062515 C185.015957,72.062515 177.987957,78.307515 173.724957,80.552515 L173.724957,80.552515 Z M149.870957,42.397515 L149.870957,42.397515 C149.575957,44.363515 149.209957,46.207515 148.862957,47.982515 L148.740957,48.556515 L132.454957,48.556515 L132.454957,39.996515 L200.657957,39.996515 L200.657957,48.556515 L158.866957,48.556515 L159.787957,43.546515 L149.870957,42.397515 Z M184.754957,84.936515 L183.363957,84.519515 C183.363957,84.519515 196.933957,76.394515 197.977957,63.449515 L154.672957,63.449515 L155.021957,62.475515 C155.612957,60.909515 156.117957,59.204515 156.621957,57.499515 L156.778957,56.994515 L201.126957,56.994515 L201.126957,48.643515 L209.478957,48.643515 L209.478957,31.471515 L191.418957,31.471515 L194.010957,27.295515 C195.159957,25.469515 196.360957,23.555515 197.542957,21.623515 L188.983957,19.153515 L188.565957,19.031515 C187.312957,22.267515 185.120957,26.756515 182.666957,31.106515 L182.458957,31.471515 L172.958957,31.471515 L172.802957,30.949515 C171.932957,27.939515 170.436957,23.729515 169.009957,20.266515 L168.992957,20.232515 L167.600957,20.754515 L161.319957,23.137515 C161.632957,24.129515 161.980957,25.190515 162.328957,26.286515 C162.781957,27.678515 163.250957,29.139515 163.720957,30.531515 L164.016957,31.471515 L149.923957,31.471515 L149.784957,30.949515 C148.966957,27.991515 147.382957,24.233515 146.095957,21.293515 L145.904957,20.858515 L143.920957,21.745515 L138.527957,24.181515 C139.328957,26.130515 140.145957,28.304515 140.893957,30.531515 L141.206957,31.471515 L124.034957,31.471515 L124.034957,48.643515 L132.577957,48.643515 L132.577957,56.994515 L146.721957,56.994515 L146.426957,57.917515 C141.554957,73.227515 133.238957,83.840515 121.006957,90.295515 L127.514957,98.212515 C137.100957,92.539515 144.443957,84.762515 149.940957,74.463515 L150.427957,73.558515 L151.106957,74.323515 C154.412957,78.029515 158.256957,81.370515 162.536957,84.258515 L163.720957,85.058515 L162.363957,85.528515 C157.109957,87.302515 150.950957,88.677515 143.050957,89.825515 L147.731957,98.333515 C157.334957,96.628515 165.895957,93.931515 173.185957,90.347515 L173.480957,90.191515 L173.776957,90.330515 C182.579957,94.244515 192.845957,96.924515 204.293957,98.263515 L209.599957,89.373515 C200.031957,88.486515 191.888957,87.024515 184.754957,84.936515 L184.754957,84.936515 Z" id="Fill-1516" fill="#1A1919"></path>
                </g>
            </g>
        </g>
    </g>
</svg>