<?xml version="1.0" encoding="UTF-8"?>
<svg width="256px" height="256px" viewBox="0 0 256 256" version="1.1" xmlns="http://www.w3.org/2000/svg" xmlns:xlink="http://www.w3.org/1999/xlink">
    <!-- Generator: Sketch 58 (84663) - https://sketch.com -->
    <title>qr-care.upcera.com</title>
    <desc>Created with Sketch.</desc>
    <g id="Page-1" stroke="none" stroke-width="1" fill="none" fill-rule="evenodd">
        <g id="qr-care.upcera.com" fill="#000000">
            <rect id="Shape" x="0" y="0" width="10.24" height="10.24"></rect>
            <rect id="Shape" x="10.24" y="0" width="10.24" height="10.24"></rect>
            <rect id="Shape" x="20.48" y="0" width="10.24" height="10.24"></rect>
            <rect id="Shape" x="30.72" y="0" width="10.24" height="10.24"></rect>
            <rect id="Shape" x="40.96" y="0" width="10.24" height="10.24"></rect>
            <rect id="Shape" x="51.2" y="0" width="10.24" height="10.24"></rect>
            <rect id="Shape" x="61.44" y="0" width="10.24" height="10.24"></rect>
            <rect id="Shape" x="81.92" y="0" width="10.24" height="10.24"></rect>
            <rect id="Shape" x="92.16" y="0" width="10.24" height="10.24"></rect>
            <rect id="Shape" x="102.4" y="0" width="10.24" height="10.24"></rect>
            <rect id="Shape" x="133.12" y="0" width="10.24" height="10.24"></rect>
            <rect id="Shape" x="143.36" y="0" width="10.24" height="10.24"></rect>
            <rect id="Shape" x="153.6" y="0" width="10.24" height="10.24"></rect>
            <rect id="Shape" x="163.84" y="0" width="10.24" height="10.24"></rect>
            <rect id="Shape" x="184.32" y="0" width="10.24" height="10.24"></rect>
            <rect id="Shape" x="194.56" y="0" width="10.24" height="10.24"></rect>
            <rect id="Shape" x="204.8" y="0" width="10.24" height="10.24"></rect>
            <rect id="Shape" x="215.04" y="0" width="10.24" height="10.24"></rect>
            <rect id="Shape" x="225.28" y="0" width="10.24" height="10.24"></rect>
            <rect id="Shape" x="235.52" y="0" width="10.24" height="10.24"></rect>
            <rect id="Shape" x="245.76" y="0" width="10.24" height="10.24"></rect>
            <rect id="Shape" x="0" y="10.24" width="10.24" height="10.24"></rect>
            <rect id="Shape" x="61.44" y="10.24" width="10.24" height="10.24"></rect>
            <rect id="Shape" x="112.64" y="10.24" width="10.24" height="10.24"></rect>
            <rect id="Shape" x="122.88" y="10.24" width="10.24" height="10.24"></rect>
            <rect id="Shape" x="143.36" y="10.24" width="10.24" height="10.24"></rect>
            <rect id="Shape" x="184.32" y="10.24" width="10.24" height="10.24"></rect>
            <rect id="Shape" x="245.76" y="10.24" width="10.24" height="10.24"></rect>
            <rect id="Shape" x="0" y="20.48" width="10.24" height="10.24"></rect>
            <rect id="Shape" x="20.48" y="20.48" width="10.24" height="10.24"></rect>
            <rect id="Shape" x="30.72" y="20.48" width="10.24" height="10.24"></rect>
            <rect id="Shape" x="40.96" y="20.48" width="10.24" height="10.24"></rect>
            <rect id="Shape" x="61.44" y="20.48" width="10.24" height="10.24"></rect>
            <rect id="Shape" x="92.16" y="20.48" width="10.24" height="10.24"></rect>
            <rect id="Shape" x="102.4" y="20.48" width="10.24" height="10.24"></rect>
            <rect id="Shape" x="112.64" y="20.48" width="10.24" height="10.24"></rect>
            <rect id="Shape" x="143.36" y="20.48" width="10.24" height="10.24"></rect>
            <rect id="Shape" x="184.32" y="20.48" width="10.24" height="10.24"></rect>
            <rect id="Shape" x="204.8" y="20.48" width="10.24" height="10.24"></rect>
            <rect id="Shape" x="215.04" y="20.48" width="10.24" height="10.24"></rect>
            <rect id="Shape" x="225.28" y="20.48" width="10.24" height="10.24"></rect>
            <rect id="Shape" x="245.76" y="20.48" width="10.24" height="10.24"></rect>
            <rect id="Shape" x="0" y="30.72" width="10.24" height="10.24"></rect>
            <rect id="Shape" x="20.48" y="30.72" width="10.24" height="10.24"></rect>
            <rect id="Shape" x="30.72" y="30.72" width="10.24" height="10.24"></rect>
            <rect id="Shape" x="40.96" y="30.72" width="10.24" height="10.24"></rect>
            <rect id="Shape" x="61.44" y="30.72" width="10.24" height="10.24"></rect>
            <rect id="Shape" x="81.92" y="30.72" width="10.24" height="10.24"></rect>
            <rect id="Shape" x="92.16" y="30.72" width="10.24" height="10.24"></rect>
            <rect id="Shape" x="102.4" y="30.72" width="10.24" height="10.24"></rect>
            <rect id="Shape" x="122.88" y="30.72" width="10.24" height="10.24"></rect>
            <rect id="Shape" x="153.6" y="30.72" width="10.24" height="10.24"></rect>
            <rect id="Shape" x="163.84" y="30.72" width="10.24" height="10.24"></rect>
            <rect id="Shape" x="184.32" y="30.72" width="10.24" height="10.24"></rect>
            <rect id="Shape" x="204.8" y="30.72" width="10.24" height="10.24"></rect>
            <rect id="Shape" x="215.04" y="30.72" width="10.24" height="10.24"></rect>
            <rect id="Shape" x="225.28" y="30.72" width="10.24" height="10.24"></rect>
            <rect id="Shape" x="245.76" y="30.72" width="10.24" height="10.24"></rect>
            <rect id="Shape" x="0" y="40.96" width="10.24" height="10.24"></rect>
            <rect id="Shape" x="20.48" y="40.96" width="10.24" height="10.24"></rect>
            <rect id="Shape" x="30.72" y="40.96" width="10.24" height="10.24"></rect>
            <rect id="Shape" x="40.96" y="40.96" width="10.24" height="10.24"></rect>
            <rect id="Shape" x="61.44" y="40.96" width="10.24" height="10.24"></rect>
            <rect id="Shape" x="81.92" y="40.96" width="10.24" height="10.24"></rect>
            <rect id="Shape" x="92.16" y="40.96" width="10.24" height="10.24"></rect>
            <rect id="Shape" x="153.6" y="40.96" width="10.24" height="10.24"></rect>
            <rect id="Shape" x="184.32" y="40.96" width="10.24" height="10.24"></rect>
            <rect id="Shape" x="204.8" y="40.96" width="10.24" height="10.24"></rect>
            <rect id="Shape" x="215.04" y="40.96" width="10.24" height="10.24"></rect>
            <rect id="Shape" x="225.28" y="40.96" width="10.24" height="10.24"></rect>
            <rect id="Shape" x="245.76" y="40.96" width="10.24" height="10.24"></rect>
            <rect id="Shape" x="0" y="51.2" width="10.24" height="10.24"></rect>
            <rect id="Shape" x="61.44" y="51.2" width="10.24" height="10.24"></rect>
            <rect id="Shape" x="81.92" y="51.2" width="10.24" height="10.24"></rect>
            <rect id="Shape" x="102.4" y="51.2" width="10.24" height="10.24"></rect>
            <rect id="Shape" x="122.88" y="51.2" width="10.24" height="10.24"></rect>
            <rect id="Shape" x="133.12" y="51.2" width="10.24" height="10.24"></rect>
            <rect id="Shape" x="153.6" y="51.2" width="10.24" height="10.24"></rect>
            <rect id="Shape" x="184.32" y="51.2" width="10.24" height="10.24"></rect>
            <rect id="Shape" x="245.76" y="51.2" width="10.24" height="10.24"></rect>
            <rect id="Shape" x="0" y="61.44" width="10.24" height="10.24"></rect>
            <rect id="Shape" x="10.24" y="61.44" width="10.24" height="10.24"></rect>
            <rect id="Shape" x="20.48" y="61.44" width="10.24" height="10.24"></rect>
            <rect id="Shape" x="30.72" y="61.44" width="10.24" height="10.24"></rect>
            <rect id="Shape" x="40.96" y="61.44" width="10.24" height="10.24"></rect>
            <rect id="Shape" x="51.2" y="61.44" width="10.24" height="10.24"></rect>
            <rect id="Shape" x="61.44" y="61.44" width="10.24" height="10.24"></rect>
            <rect id="Shape" x="81.92" y="61.44" width="10.24" height="10.24"></rect>
            <rect id="Shape" x="102.4" y="61.44" width="10.24" height="10.24"></rect>
            <rect id="Shape" x="122.88" y="61.44" width="10.24" height="10.24"></rect>
            <rect id="Shape" x="143.36" y="61.44" width="10.24" height="10.24"></rect>
            <rect id="Shape" x="163.84" y="61.44" width="10.24" height="10.24"></rect>
            <rect id="Shape" x="184.32" y="61.44" width="10.24" height="10.24"></rect>
            <rect id="Shape" x="194.56" y="61.44" width="10.24" height="10.24"></rect>
            <rect id="Shape" x="204.8" y="61.44" width="10.24" height="10.24"></rect>
            <rect id="Shape" x="215.04" y="61.44" width="10.24" height="10.24"></rect>
            <rect id="Shape" x="225.28" y="61.44" width="10.24" height="10.24"></rect>
            <rect id="Shape" x="235.52" y="61.44" width="10.24" height="10.24"></rect>
            <rect id="Shape" x="245.76" y="61.44" width="10.24" height="10.24"></rect>
            <rect id="Shape" x="81.92" y="71.68" width="10.24" height="10.24"></rect>
            <rect id="Shape" x="92.16" y="71.68" width="10.24" height="10.24"></rect>
            <rect id="Shape" x="122.88" y="71.68" width="10.24" height="10.24"></rect>
            <rect id="Shape" x="133.12" y="71.68" width="10.24" height="10.24"></rect>
            <rect id="Shape" x="153.6" y="71.68" width="10.24" height="10.24"></rect>
            <rect id="Shape" x="163.84" y="71.68" width="10.24" height="10.24"></rect>
            <rect id="Shape" x="0" y="81.92" width="10.24" height="10.24"></rect>
            <rect id="Shape" x="10.24" y="81.92" width="10.24" height="10.24"></rect>
            <rect id="Shape" x="20.48" y="81.92" width="10.24" height="10.24"></rect>
            <rect id="Shape" x="40.96" y="81.92" width="10.24" height="10.24"></rect>
            <rect id="Shape" x="61.44" y="81.92" width="10.24" height="10.24"></rect>
            <rect id="Shape" x="81.92" y="81.92" width="10.24" height="10.24"></rect>
            <rect id="Shape" x="92.16" y="81.92" width="10.24" height="10.24"></rect>
            <rect id="Shape" x="102.4" y="81.92" width="10.24" height="10.24"></rect>
            <rect id="Shape" x="122.88" y="81.92" width="10.24" height="10.24"></rect>
            <rect id="Shape" x="153.6" y="81.92" width="10.24" height="10.24"></rect>
            <rect id="Shape" x="163.84" y="81.92" width="10.24" height="10.24"></rect>
            <rect id="Shape" x="174.08" y="81.92" width="10.24" height="10.24"></rect>
            <rect id="Shape" x="184.32" y="81.92" width="10.24" height="10.24"></rect>
            <rect id="Shape" x="194.56" y="81.92" width="10.24" height="10.24"></rect>
            <rect id="Shape" x="204.8" y="81.92" width="10.24" height="10.24"></rect>
            <rect id="Shape" x="215.04" y="81.92" width="10.24" height="10.24"></rect>
            <rect id="Shape" x="245.76" y="81.92" width="10.24" height="10.24"></rect>
            <rect id="Shape" x="30.72" y="92.16" width="10.24" height="10.24"></rect>
            <rect id="Shape" x="51.2" y="92.16" width="10.24" height="10.24"></rect>
            <rect id="Shape" x="102.4" y="92.16" width="10.24" height="10.24"></rect>
            <rect id="Shape" x="143.36" y="92.16" width="10.24" height="10.24"></rect>
            <rect id="Shape" x="184.32" y="92.16" width="10.24" height="10.24"></rect>
            <rect id="Shape" x="194.56" y="92.16" width="10.24" height="10.24"></rect>
            <rect id="Shape" x="215.04" y="92.16" width="10.24" height="10.24"></rect>
            <rect id="Shape" x="225.28" y="92.16" width="10.24" height="10.24"></rect>
            <rect id="Shape" x="10.24" y="102.4" width="10.24" height="10.24"></rect>
            <rect id="Shape" x="30.72" y="102.4" width="10.24" height="10.24"></rect>
            <rect id="Shape" x="61.44" y="102.4" width="10.24" height="10.24"></rect>
            <rect id="Shape" x="81.92" y="102.4" width="10.24" height="10.24"></rect>
            <rect id="Shape" x="92.16" y="102.4" width="10.24" height="10.24"></rect>
            <rect id="Shape" x="112.64" y="102.4" width="10.24" height="10.24"></rect>
            <rect id="Shape" x="122.88" y="102.4" width="10.24" height="10.24"></rect>
            <rect id="Shape" x="133.12" y="102.4" width="10.24" height="10.24"></rect>
            <rect id="Shape" x="143.36" y="102.4" width="10.24" height="10.24"></rect>
            <rect id="Shape" x="184.32" y="102.4" width="10.24" height="10.24"></rect>
            <rect id="Shape" x="215.04" y="102.4" width="10.24" height="10.24"></rect>
            <rect id="Shape" x="225.28" y="102.4" width="10.24" height="10.24"></rect>
            <rect id="Shape" x="245.76" y="102.4" width="10.24" height="10.24"></rect>
            <rect id="Shape" x="0" y="112.64" width="10.24" height="10.24"></rect>
            <rect id="Shape" x="30.72" y="112.64" width="10.24" height="10.24"></rect>
            <rect id="Shape" x="40.96" y="112.64" width="10.24" height="10.24"></rect>
            <rect id="Shape" x="71.68" y="112.64" width="10.24" height="10.24"></rect>
            <rect id="Shape" x="92.16" y="112.64" width="10.24" height="10.24"></rect>
            <rect id="Shape" x="122.88" y="112.64" width="10.24" height="10.24"></rect>
            <rect id="Shape" x="143.36" y="112.64" width="10.24" height="10.24"></rect>
            <rect id="Shape" x="153.6" y="112.64" width="10.24" height="10.24"></rect>
            <rect id="Shape" x="174.08" y="112.64" width="10.24" height="10.24"></rect>
            <rect id="Shape" x="184.32" y="112.64" width="10.24" height="10.24"></rect>
            <rect id="Shape" x="10.24" y="122.88" width="10.24" height="10.24"></rect>
            <rect id="Shape" x="20.48" y="122.88" width="10.24" height="10.24"></rect>
            <rect id="Shape" x="30.72" y="122.88" width="10.24" height="10.24"></rect>
            <rect id="Shape" x="40.96" y="122.88" width="10.24" height="10.24"></rect>
            <rect id="Shape" x="61.44" y="122.88" width="10.24" height="10.24"></rect>
            <rect id="Shape" x="71.68" y="122.88" width="10.24" height="10.24"></rect>
            <rect id="Shape" x="81.92" y="122.88" width="10.24" height="10.24"></rect>
            <rect id="Shape" x="92.16" y="122.88" width="10.24" height="10.24"></rect>
            <rect id="Shape" x="102.4" y="122.88" width="10.24" height="10.24"></rect>
            <rect id="Shape" x="122.88" y="122.88" width="10.24" height="10.24"></rect>
            <rect id="Shape" x="143.36" y="122.88" width="10.24" height="10.24"></rect>
            <rect id="Shape" x="174.08" y="122.88" width="10.24" height="10.24"></rect>
            <rect id="Shape" x="194.56" y="122.88" width="10.24" height="10.24"></rect>
            <rect id="Shape" x="204.8" y="122.88" width="10.24" height="10.24"></rect>
            <rect id="Shape" x="225.28" y="122.88" width="10.24" height="10.24"></rect>
            <rect id="Shape" x="71.68" y="133.12" width="10.24" height="10.24"></rect>
            <rect id="Shape" x="81.92" y="133.12" width="10.24" height="10.24"></rect>
            <rect id="Shape" x="92.16" y="133.12" width="10.24" height="10.24"></rect>
            <rect id="Shape" x="102.4" y="133.12" width="10.24" height="10.24"></rect>
            <rect id="Shape" x="112.64" y="133.12" width="10.24" height="10.24"></rect>
            <rect id="Shape" x="122.88" y="133.12" width="10.24" height="10.24"></rect>
            <rect id="Shape" x="133.12" y="133.12" width="10.24" height="10.24"></rect>
            <rect id="Shape" x="143.36" y="133.12" width="10.24" height="10.24"></rect>
            <rect id="Shape" x="174.08" y="133.12" width="10.24" height="10.24"></rect>
            <rect id="Shape" x="204.8" y="133.12" width="10.24" height="10.24"></rect>
            <rect id="Shape" x="245.76" y="133.12" width="10.24" height="10.24"></rect>
            <rect id="Shape" x="40.96" y="143.36" width="10.24" height="10.24"></rect>
            <rect id="Shape" x="61.44" y="143.36" width="10.24" height="10.24"></rect>
            <rect id="Shape" x="133.12" y="143.36" width="10.24" height="10.24"></rect>
            <rect id="Shape" x="163.84" y="143.36" width="10.24" height="10.24"></rect>
            <rect id="Shape" x="174.08" y="143.36" width="10.24" height="10.24"></rect>
            <rect id="Shape" x="194.56" y="143.36" width="10.24" height="10.24"></rect>
            <rect id="Shape" x="204.8" y="143.36" width="10.24" height="10.24"></rect>
            <rect id="Shape" x="215.04" y="143.36" width="10.24" height="10.24"></rect>
            <rect id="Shape" x="225.28" y="143.36" width="10.24" height="10.24"></rect>
            <rect id="Shape" x="235.52" y="143.36" width="10.24" height="10.24"></rect>
            <rect id="Shape" x="245.76" y="143.36" width="10.24" height="10.24"></rect>
            <rect id="Shape" x="0" y="153.6" width="10.24" height="10.24"></rect>
            <rect id="Shape" x="20.48" y="153.6" width="10.24" height="10.24"></rect>
            <rect id="Shape" x="40.96" y="153.6" width="10.24" height="10.24"></rect>
            <rect id="Shape" x="51.2" y="153.6" width="10.24" height="10.24"></rect>
            <rect id="Shape" x="71.68" y="153.6" width="10.24" height="10.24"></rect>
            <rect id="Shape" x="102.4" y="153.6" width="10.24" height="10.24"></rect>
            <rect id="Shape" x="133.12" y="153.6" width="10.24" height="10.24"></rect>
            <rect id="Shape" x="143.36" y="153.6" width="10.24" height="10.24"></rect>
            <rect id="Shape" x="153.6" y="153.6" width="10.24" height="10.24"></rect>
            <rect id="Shape" x="194.56" y="153.6" width="10.24" height="10.24"></rect>
            <rect id="Shape" x="204.8" y="153.6" width="10.24" height="10.24"></rect>
            <rect id="Shape" x="215.04" y="153.6" width="10.24" height="10.24"></rect>
            <rect id="Shape" x="225.28" y="153.6" width="10.24" height="10.24"></rect>
            <rect id="Shape" x="0" y="163.84" width="10.24" height="10.24"></rect>
            <rect id="Shape" x="10.24" y="163.84" width="10.24" height="10.24"></rect>
            <rect id="Shape" x="20.48" y="163.84" width="10.24" height="10.24"></rect>
            <rect id="Shape" x="30.72" y="163.84" width="10.24" height="10.24"></rect>
            <rect id="Shape" x="40.96" y="163.84" width="10.24" height="10.24"></rect>
            <rect id="Shape" x="51.2" y="163.84" width="10.24" height="10.24"></rect>
            <rect id="Shape" x="61.44" y="163.84" width="10.24" height="10.24"></rect>
            <rect id="Shape" x="71.68" y="163.84" width="10.24" height="10.24"></rect>
            <rect id="Shape" x="81.92" y="163.84" width="10.24" height="10.24"></rect>
            <rect id="Shape" x="92.16" y="163.84" width="10.24" height="10.24"></rect>
            <rect id="Shape" x="102.4" y="163.84" width="10.24" height="10.24"></rect>
            <rect id="Shape" x="122.88" y="163.84" width="10.24" height="10.24"></rect>
            <rect id="Shape" x="133.12" y="163.84" width="10.24" height="10.24"></rect>
            <rect id="Shape" x="163.84" y="163.84" width="10.24" height="10.24"></rect>
            <rect id="Shape" x="174.08" y="163.84" width="10.24" height="10.24"></rect>
            <rect id="Shape" x="184.32" y="163.84" width="10.24" height="10.24"></rect>
            <rect id="Shape" x="194.56" y="163.84" width="10.24" height="10.24"></rect>
            <rect id="Shape" x="204.8" y="163.84" width="10.24" height="10.24"></rect>
            <rect id="Shape" x="245.76" y="163.84" width="10.24" height="10.24"></rect>
            <rect id="Shape" x="81.92" y="174.08" width="10.24" height="10.24"></rect>
            <rect id="Shape" x="92.16" y="174.08" width="10.24" height="10.24"></rect>
            <rect id="Shape" x="102.4" y="174.08" width="10.24" height="10.24"></rect>
            <rect id="Shape" x="112.64" y="174.08" width="10.24" height="10.24"></rect>
            <rect id="Shape" x="153.6" y="174.08" width="10.24" height="10.24"></rect>
            <rect id="Shape" x="163.84" y="174.08" width="10.24" height="10.24"></rect>
            <rect id="Shape" x="204.8" y="174.08" width="10.24" height="10.24"></rect>
            <rect id="Shape" x="225.28" y="174.08" width="10.24" height="10.24"></rect>
            <rect id="Shape" x="245.76" y="174.08" width="10.24" height="10.24"></rect>
            <rect id="Shape" x="0" y="184.32" width="10.24" height="10.24"></rect>
            <rect id="Shape" x="10.24" y="184.32" width="10.24" height="10.24"></rect>
            <rect id="Shape" x="20.48" y="184.32" width="10.24" height="10.24"></rect>
            <rect id="Shape" x="30.72" y="184.32" width="10.24" height="10.24"></rect>
            <rect id="Shape" x="40.96" y="184.32" width="10.24" height="10.24"></rect>
            <rect id="Shape" x="51.2" y="184.32" width="10.24" height="10.24"></rect>
            <rect id="Shape" x="61.44" y="184.32" width="10.24" height="10.24"></rect>
            <rect id="Shape" x="102.4" y="184.32" width="10.24" height="10.24"></rect>
            <rect id="Shape" x="122.88" y="184.32" width="10.24" height="10.24"></rect>
            <rect id="Shape" x="143.36" y="184.32" width="10.24" height="10.24"></rect>
            <rect id="Shape" x="153.6" y="184.32" width="10.24" height="10.24"></rect>
            <rect id="Shape" x="163.84" y="184.32" width="10.24" height="10.24"></rect>
            <rect id="Shape" x="184.32" y="184.32" width="10.24" height="10.24"></rect>
            <rect id="Shape" x="204.8" y="184.32" width="10.24" height="10.24"></rect>
            <rect id="Shape" x="215.04" y="184.32" width="10.24" height="10.24"></rect>
            <rect id="Shape" x="0" y="194.56" width="10.24" height="10.24"></rect>
            <rect id="Shape" x="61.44" y="194.56" width="10.24" height="10.24"></rect>
            <rect id="Shape" x="92.16" y="194.56" width="10.24" height="10.24"></rect>
            <rect id="Shape" x="102.4" y="194.56" width="10.24" height="10.24"></rect>
            <rect id="Shape" x="112.64" y="194.56" width="10.24" height="10.24"></rect>
            <rect id="Shape" x="122.88" y="194.56" width="10.24" height="10.24"></rect>
            <rect id="Shape" x="163.84" y="194.56" width="10.24" height="10.24"></rect>
            <rect id="Shape" x="204.8" y="194.56" width="10.24" height="10.24"></rect>
            <rect id="Shape" x="225.28" y="194.56" width="10.24" height="10.24"></rect>
            <rect id="Shape" x="245.76" y="194.56" width="10.24" height="10.24"></rect>
            <rect id="Shape" x="0" y="204.8" width="10.24" height="10.24"></rect>
            <rect id="Shape" x="20.48" y="204.8" width="10.24" height="10.24"></rect>
            <rect id="Shape" x="30.72" y="204.8" width="10.24" height="10.24"></rect>
            <rect id="Shape" x="40.96" y="204.8" width="10.24" height="10.24"></rect>
            <rect id="Shape" x="61.44" y="204.8" width="10.24" height="10.24"></rect>
            <rect id="Shape" x="81.92" y="204.8" width="10.24" height="10.24"></rect>
            <rect id="Shape" x="92.16" y="204.8" width="10.24" height="10.24"></rect>
            <rect id="Shape" x="102.4" y="204.8" width="10.24" height="10.24"></rect>
            <rect id="Shape" x="133.12" y="204.8" width="10.24" height="10.24"></rect>
            <rect id="Shape" x="143.36" y="204.8" width="10.24" height="10.24"></rect>
            <rect id="Shape" x="153.6" y="204.8" width="10.24" height="10.24"></rect>
            <rect id="Shape" x="163.84" y="204.8" width="10.24" height="10.24"></rect>
            <rect id="Shape" x="174.08" y="204.8" width="10.24" height="10.24"></rect>
            <rect id="Shape" x="184.32" y="204.8" width="10.24" height="10.24"></rect>
            <rect id="Shape" x="194.56" y="204.8" width="10.24" height="10.24"></rect>
            <rect id="Shape" x="204.8" y="204.8" width="10.24" height="10.24"></rect>
            <rect id="Shape" x="225.28" y="204.8" width="10.24" height="10.24"></rect>
            <rect id="Shape" x="245.76" y="204.8" width="10.24" height="10.24"></rect>
            <rect id="Shape" x="0" y="215.04" width="10.24" height="10.24"></rect>
            <rect id="Shape" x="20.48" y="215.04" width="10.24" height="10.24"></rect>
            <rect id="Shape" x="30.72" y="215.04" width="10.24" height="10.24"></rect>
            <rect id="Shape" x="40.96" y="215.04" width="10.24" height="10.24"></rect>
            <rect id="Shape" x="61.44" y="215.04" width="10.24" height="10.24"></rect>
            <rect id="Shape" x="102.4" y="215.04" width="10.24" height="10.24"></rect>
            <rect id="Shape" x="112.64" y="215.04" width="10.24" height="10.24"></rect>
            <rect id="Shape" x="122.88" y="215.04" width="10.24" height="10.24"></rect>
            <rect id="Shape" x="133.12" y="215.04" width="10.24" height="10.24"></rect>
            <rect id="Shape" x="163.84" y="215.04" width="10.24" height="10.24"></rect>
            <rect id="Shape" x="174.08" y="215.04" width="10.24" height="10.24"></rect>
            <rect id="Shape" x="184.32" y="215.04" width="10.24" height="10.24"></rect>
            <rect id="Shape" x="194.56" y="215.04" width="10.24" height="10.24"></rect>
            <rect id="Shape" x="215.04" y="215.04" width="10.24" height="10.24"></rect>
            <rect id="Shape" x="235.52" y="215.04" width="10.24" height="10.24"></rect>
            <rect id="Shape" x="0" y="225.28" width="10.24" height="10.24"></rect>
            <rect id="Shape" x="20.48" y="225.28" width="10.24" height="10.24"></rect>
            <rect id="Shape" x="30.72" y="225.28" width="10.24" height="10.24"></rect>
            <rect id="Shape" x="40.96" y="225.28" width="10.24" height="10.24"></rect>
            <rect id="Shape" x="61.44" y="225.28" width="10.24" height="10.24"></rect>
            <rect id="Shape" x="81.92" y="225.28" width="10.24" height="10.24"></rect>
            <rect id="Shape" x="92.16" y="225.28" width="10.24" height="10.24"></rect>
            <rect id="Shape" x="102.4" y="225.28" width="10.24" height="10.24"></rect>
            <rect id="Shape" x="112.64" y="225.28" width="10.24" height="10.24"></rect>
            <rect id="Shape" x="143.36" y="225.28" width="10.24" height="10.24"></rect>
            <rect id="Shape" x="153.6" y="225.28" width="10.24" height="10.24"></rect>
            <rect id="Shape" x="163.84" y="225.28" width="10.24" height="10.24"></rect>
            <rect id="Shape" x="215.04" y="225.28" width="10.24" height="10.24"></rect>
            <rect id="Shape" x="235.52" y="225.28" width="10.24" height="10.24"></rect>
            <rect id="Shape" x="0" y="235.52" width="10.24" height="10.24"></rect>
            <rect id="Shape" x="61.44" y="235.52" width="10.24" height="10.24"></rect>
            <rect id="Shape" x="81.92" y="235.52" width="10.24" height="10.24"></rect>
            <rect id="Shape" x="92.16" y="235.52" width="10.24" height="10.24"></rect>
            <rect id="Shape" x="122.88" y="235.52" width="10.24" height="10.24"></rect>
            <rect id="Shape" x="143.36" y="235.52" width="10.24" height="10.24"></rect>
            <rect id="Shape" x="153.6" y="235.52" width="10.24" height="10.24"></rect>
            <rect id="Shape" x="163.84" y="235.52" width="10.24" height="10.24"></rect>
            <rect id="Shape" x="174.08" y="235.52" width="10.24" height="10.24"></rect>
            <rect id="Shape" x="194.56" y="235.52" width="10.24" height="10.24"></rect>
            <rect id="Shape" x="204.8" y="235.52" width="10.24" height="10.24"></rect>
            <rect id="Shape" x="225.28" y="235.52" width="10.24" height="10.24"></rect>
            <rect id="Shape" x="235.52" y="235.52" width="10.24" height="10.24"></rect>
            <rect id="Shape" x="0" y="245.76" width="10.24" height="10.24"></rect>
            <rect id="Shape" x="10.24" y="245.76" width="10.24" height="10.24"></rect>
            <rect id="Shape" x="20.48" y="245.76" width="10.24" height="10.24"></rect>
            <rect id="Shape" x="30.72" y="245.76" width="10.24" height="10.24"></rect>
            <rect id="Shape" x="40.96" y="245.76" width="10.24" height="10.24"></rect>
            <rect id="Shape" x="51.2" y="245.76" width="10.24" height="10.24"></rect>
            <rect id="Shape" x="61.44" y="245.76" width="10.24" height="10.24"></rect>
            <rect id="Shape" x="81.92" y="245.76" width="10.24" height="10.24"></rect>
            <rect id="Shape" x="102.4" y="245.76" width="10.24" height="10.24"></rect>
            <rect id="Shape" x="112.64" y="245.76" width="10.24" height="10.24"></rect>
            <rect id="Shape" x="122.88" y="245.76" width="10.24" height="10.24"></rect>
            <rect id="Shape" x="143.36" y="245.76" width="10.24" height="10.24"></rect>
            <rect id="Shape" x="163.84" y="245.76" width="10.24" height="10.24"></rect>
            <rect id="Shape" x="184.32" y="245.76" width="10.24" height="10.24"></rect>
            <rect id="Shape" x="215.04" y="245.76" width="10.24" height="10.24"></rect>
            <rect id="Shape" x="225.28" y="245.76" width="10.24" height="10.24"></rect>
            <rect id="Shape" x="235.52" y="245.76" width="10.24" height="10.24"></rect>
            <rect id="Shape" x="245.76" y="245.76" width="10.24" height="10.24"></rect>
        </g>
    </g>
</svg>