<?xml version="1.0" encoding="UTF-8"?>
<svg width="279px" height="279px" viewBox="0 0 279 279" version="1.1" xmlns="http://www.w3.org/2000/svg" xmlns:xlink="http://www.w3.org/1999/xlink">
    <!-- Generator: Sketch 58 (84663) - https://sketch.com -->
    <title>编组 2</title>
    <desc>Created with Sketch.</desc>
    <g id="页面-1" stroke="none" stroke-width="1" fill="none" fill-rule="evenodd">
        <g id="HT" transform="translate(-158.000000, -281.000000)">
            <g id="编组-2" transform="translate(158.877900, 281.602500)">
                <path d="M138.8977,-2.84217094e-14 C215.6088,-2.84217094e-14 277.7953,62.1862 277.7953,138.8974 C277.7953,215.6088 215.6088,277.7953 138.8977,277.7953 C62.1865,277.7953 0,215.6088 0,138.8974 C0,62.1862 62.1865,-2.84217094e-14 138.8977,-2.84217094e-14 Z" id="Fill-1" fill="#FFFFFF"></path>
                <path d="M138.8977,-2.84217094e-14 C215.6088,-2.84217094e-14 277.7953,62.1862 277.7953,138.8974 C277.7953,215.6088 215.6088,277.7953 138.8977,277.7953 C62.1865,277.7953 0,215.6088 0,138.8974 C0,62.1862 62.1865,-2.84217094e-14 138.8977,-2.84217094e-14 Z" id="Stroke-2" stroke="#474443" stroke-width="0.5669"></path>
                <polygon id="Fill-3" fill="#FEFEFE" points="136.3839 95.0358 142.4135 95.0358 142.4135 98.2154 136.3839 98.2154"></polygon>
                <path d="M134.1717,66.8016 L134.1615,66.7497 C134.0433,65.2085 133.7854,63.6931 133.3871,62.3197 C133.0135,61.0325 132.5157,59.8626 131.8944,58.9054 C131.2421,57.8994 130.3722,57.2675 129.3939,56.5563 C129.1178,56.3559 128.833,56.149 128.5112,55.9015 L128.5112,55.9032 C127.3941,55.0446 126.1585,54.2064 124.8455,53.6451 C123.5526,53.0918 122.175,52.801 120.7488,53.0184 C119.3426,53.2324 118.0066,53.6372 116.4966,54.8861 C114.9503,56.1643 113.2155,58.3186 111.0359,62.0263 L111.0458,62.0102 C110.4293,63.1973 109.7946,64.2773 109.1832,65.3171 C108.2772,66.8591 107.4226,68.313 106.7219,69.9758 C105.6337,72.5576 104.7793,75.4441 103.9014,78.4094 C103.4839,79.8194 103.0607,81.2489 102.6034,82.6764 L102.6023,82.6804 L102.6034,82.6764 C102.6029,82.6776 102.6029,82.679 102.6023,82.6804 L101.2456,87.1036 C101.0492,87.9619 100.5395,88.67 100.0188,89.394 C99.3623,90.3073 98.6842,91.2501 98.7344,92.4877 C98.7384,92.5852 98.7441,92.6697 98.7509,92.736 L98.7509,92.7374 C99.0343,95.5622 102.267,96.785 108.0981,96.1994 C110.295,95.9791 112.5638,95.3969 114.9874,94.5627 C117.4289,93.7225 120.0184,92.6306 122.847,91.3961 L123.018,91.3221 L123.1795,91.4165 L132.3247,96.7799 C133.2717,97.2009 134.0918,97.3712 134.7849,97.3335 L134.7863,97.3335 C135.3575,97.3021 135.8408,97.1269 136.2348,96.8346 C136.6348,96.537 136.9525,96.1135 137.1855,95.5925 C137.5642,94.7458 137.7199,93.6417 137.6515,92.3902 L137.6515,92.3888 C137.5926,91.3116 137.2054,90.5227 136.8136,89.7242 C136.3612,88.8015 135.9017,87.8644 135.8564,86.4604 C135.8292,85.6245 135.8042,84.7868 135.7804,83.9625 C135.5998,77.8351 135.4419,72.4876 134.1717,66.8016" id="Fill-4" fill="#FEFEFE"></path>
                <path d="M167.1259,60.6535 C165.5963,59.4607 163.5353,58.6001 161.5845,58.3713 C158.7325,58.0357 155.8993,58.832 153.5261,60.1331 C150.9194,61.562 147.2369,64.1367 144.9644,67.5598 C140.156,76.6982 143.8974,83.3477 143.8963,83.346 C144.504,84.5028 145.8513,86.0318 146.9617,87.1101 C148.4626,88.5674 150.1861,89.8566 151.5135,90.737 C152.7866,91.5812 155.6382,93.2009 158.9516,94.0391 C162.2347,94.8697 165.492,95.0862 168.5634,94.9343 C175.517,94.5916 178.0892,93.1839 177.9914,88.8568 C177.8927,84.0671 177.1461,78.5095 174.835,74.3077 C174.0002,72.7903 173.1765,70.8843 172.6127,69.3916 C171.2954,65.9061 170.1887,63.0428 167.1259,60.6535 Z M134.53,66.7222 C134.2982,63.6965 133.526,60.7445 132.2025,58.7055 C131.3181,57.3418 130.0984,56.6578 128.736,55.6112 C126.4646,53.8654 123.6969,52.1969 120.6938,52.6547 C117.7648,53.1006 115.1289,54.3402 110.719,61.8409 C109.1574,64.8451 107.5655,67.0306 106.3837,69.8335 C104.7643,73.6753 103.6707,78.1427 102.2522,82.5684 L100.8902,87.012 C100.4641,88.8965 98.2704,90.1568 98.3659,92.5019 C98.4994,95.7569 101.8877,97.1921 108.1341,96.5648 C112.5978,96.1169 117.3104,94.214 122.9939,91.7334 L132.1583,97.1079 C136.2682,98.947 138.2372,96.3281 138.0201,92.3701 C138.013,92.2405 138.0008,92.1144 137.9855,91.9925 C139.0383,92.3743 140.1526,92.6598 141.3034,92.9529 C142.0345,93.1391 142.7823,93.3296 143.4807,93.5337 C148.2324,94.9193 153.2189,95.4729 157.9944,95.6143 C162.6897,95.7532 167.1741,95.4947 171.0326,95.2379 C177.6464,95.0525 178.6363,91.7456 178.5651,88.352 C178.5487,87.5659 178.4687,86.7546 178.3936,85.9828 C178.3746,85.7832 178.3568,85.6106 178.3145,85.1077 C178.1362,83.001 177.7553,81.0026 177.228,79.1674 C176.6622,77.1999 175.9264,75.4214 175.0879,73.897 C174.2755,72.4201 173.7975,71.1564 173.2445,69.6929 C172.7853,68.478 172.2748,67.1267 171.4839,65.4095 C170.7018,63.7118 169.3157,61.8183 167.4309,60.3485 C165.8914,59.1472 164.0174,58.2262 161.8676,57.9192 C159.6002,57.5955 156.0192,58.0164 152.3356,60.0364 C150.0996,61.2621 147.8223,63.0783 145.772,65.6751 C145.0318,66.405 143.9788,67.4039 143.3974,67.993 C140.9159,70.5084 138.0736,73.3896 135.8385,76.4028 C135.6265,73.1526 135.2617,69.9979 134.53,66.7222 Z M137.8372,91.2478 C137.3879,89.6066 136.2938,88.5759 136.2246,86.4488 C136.1169,83.1314 136.0556,80.0674 135.8813,77.095 C137.2604,75.0546 139.004,73.1977 141.255,70.9155 C141.6603,70.5067 143.1749,68.8978 144.387,67.6103 C142.9447,69.8823 142.1184,72.7489 141.9579,75.6428 C141.7938,78.6062 142.3256,81.6106 143.6046,84.0473 L143.6057,84.0487 C144.2523,85.2803 145.2887,86.51 146.4494,87.6371 C147.9881,89.1312 149.751,90.4507 151.1079,91.3499 C154.7036,93.7352 158.2333,94.7659 161.3169,95.1721 C156.0232,95.1072 150.7536,94.5916 144.9235,93.3134 C144.1452,93.0858 142.0268,92.6334 141.3233,92.4543 C140.2353,92.1773 139.0144,91.783 137.8372,91.2478 Z M167.0015,62.0198 C163.3349,59.0752 158.156,58.8158 154.1115,61.0991 C151.778,62.4158 149.2504,64.7771 147.2162,67.9323 C145.9126,69.956 145.1489,72.8955 144.9893,75.8699 C144.6574,82.0738 148.2574,87.0948 153.2849,90.0343 C158.0783,92.8372 163.7402,93.0748 167.3782,92.6391 C168.7272,92.4775 169.7553,92.3553 170.3169,92.4633 C175.536,92.3437 177.3578,90.2843 176.9298,85.0893 C176.7733,83.1895 176.0533,80.3611 175.5953,78.7193 C175.138,77.0811 173.7851,74.6949 172.5296,71.252 C171.1868,67.5689 169.1929,63.5987 167.0015,62.0198 Z M172.8632,71.0439 C174.8744,75.7701 176.3102,78.6067 177.1991,84.0419 C177.3513,85.8895 177.6215,88.5181 176.8473,90.1327 C176.0701,91.7541 174.2672,92.9194 170.3035,93.0056 L170.2437,92.9994 C169.7766,92.8973 168.7692,93.0175 167.4377,93.1771 C163.7362,93.6207 157.9694,93.3951 153.0258,90.5043 C147.6904,87.3845 144.1041,82.5426 144.4629,75.8404 C144.6268,72.7787 145.4205,69.7405 146.7777,67.6338 C148.8651,64.3972 151.3205,62.2548 153.7206,60.9004 C156.9926,59.0531 160.2709,59.0559 162.2821,59.3524 C164.1875,59.6319 165.8492,60.4724 167.2141,61.5691 C169.9124,63.7356 171.6897,67.8473 172.8632,71.0439 Z M100.3088,90.2897 C103.4496,87.8718 107.7786,86.9675 111.6519,87.3984 C115.8664,87.8678 120.8517,89.6434 123.4857,91.2447 L123.4976,91.243 L132.1801,96.4897 C135.2123,97.8381 136.9134,96.9537 137.3502,94.1939 C137.4407,93.6216 137.5367,93.6474 137.6513,92.3902 L137.6513,92.3888 C137.5467,90.3745 135.773,88.5657 135.7007,86.3042 C135.6735,85.4683 135.8039,84.7863 135.7804,83.9625 C135.7297,82.2314 135.5984,78.3723 135.1131,74.0024 C134.8127,71.2919 133.9594,67.3277 134.1615,66.7494 C133.9594,64.1095 133.0963,61.1246 131.6322,58.868 C130.9799,57.8622 130.3725,57.2675 129.3939,56.5563 C129.1176,56.3556 128.833,56.149 128.5115,55.9018 L128.5115,55.9032 C127.3941,55.0446 126.1585,54.2064 124.8455,53.6451 C123.5526,53.0915 122.175,52.801 120.7488,53.0184 C115.994,53.7421 113.2844,58.2018 111.0359,62.0263 L111.0458,62.0107 C109.529,64.929 107.8725,67.521 106.6836,70.3443 C105.6541,72.79 104.3411,76.9269 103.553,79.9509 C102.5391,83.8392 102.0087,86.6251 100.0188,89.3943 C99.3623,90.3073 98.684,91.2501 98.7347,92.4877 C98.7381,92.5852 98.7441,92.6697 98.7506,92.736 L98.7506,92.7374 C99.0343,95.5627 102.2667,96.785 108.0981,96.1994 C110.2952,95.9791 112.5638,95.3969 114.9874,94.5627 C117.5735,93.6729 120.0923,92.5923 122.5967,91.5049 C120.2786,90.3172 117.9187,89.1692 112.7064,88.3259 C108.8153,87.6963 105.2632,87.6748 101.6515,89.8764 C100.9732,90.29 100.1189,90.6747 99.8498,91.4763 C99.5508,92.3692 99.8116,93.5238 100.554,94.2106 C102.5972,96.0999 107.5643,95.9137 107.4949,95.9193 C101.7284,96.3638 100.0052,94.6704 99.544,93.1924 C99.2424,92.2252 99.2384,91.1132 100.3088,90.2897 L100.3088,90.2897 Z" id="Fill-5" fill="#9288B1"></path>
                <polygon id="Fill-6" fill="#9288B1" points="158.3379 196.0359 152.936 196.0359 148.815 212.4961 144.233 212.4961 148.354 196.0359 142.4058 196.0359 142.9016 194.0409 158.8337 194.0409"></polygon>
                <polygon id="Fill-7" fill="#9288B1" points="135.7379 212.5171 131.7218 212.5171 133.882 204.0931 125.7012 204.0931 123.541 212.5171 119.4772 212.5171 124.1745 194.1999 128.2383 194.1999 126.0921 202.5689 134.2727 202.5689 136.419 194.1999 140.4352 194.1999"></polygon>
                <path d="M120.6216,139.2761 L120.7315,142.7871 L120.1292,142.7871 C119.6201,140.8927 118.5256,139.9442 116.8475,139.9442 C116.0096,139.8705 115.6266,140.1676 115.6992,140.8357 L115.6992,143.6216 C116.9036,143.7333 117.6316,143.1771 117.8858,141.9503 L118.4349,141.9503 L118.4349,145.9063 L117.8858,145.9063 C117.6316,144.6795 116.9036,144.1233 115.6992,144.2353 L115.6992,147.5232 C115.6618,148.1528 116.0445,148.4501 116.8475,148.4141 C118.6705,148.3759 119.8372,147.3537 120.3483,145.3496 L120.9507,145.3496 L120.8412,149.082 L111.9787,149.082 L111.9787,148.5258 C112.9638,148.5618 113.4187,148.2455 113.3464,147.5771 L113.3464,140.781 C113.4187,140.1126 112.9638,139.7968 111.9787,139.8325 L111.9787,139.2761 L120.6216,139.2761 Z" id="Fill-8" fill="#9288B1"></path>
                <path d="M110.7885,139.3308 L110.7885,142.8415 L110.2394,142.8415 C109.5115,140.7237 108.4541,139.7041 107.0677,139.7778 C105.427,139.7778 104.6055,141.2442 104.6055,144.178 C104.6055,147.0759 105.5554,148.5425 107.4504,148.5808 C109.3108,148.5425 110.3145,147.4302 110.4588,145.2382 L111.115,145.2382 C111.0427,147.8007 109.7121,149.101 107.1235,149.1367 C104.4207,149.044 102.7851,147.8316 102.2307,145.4987 C102.0569,144.7668 102.0456,143.5513 102.3579,142.5918 C103.0337,140.5154 104.5542,139.2908 106.9583,139.1097 C107.7585,139.0496 108.6735,139.3878 109.6934,139.9442 L110.2394,139.3308 L110.7885,139.3308 Z" id="Fill-9" fill="#9288B1"></path>
                <path d="M81.6908,139.2761 L86.6135,139.2761 L86.6135,139.8325 C85.5936,139.7968 85.1193,140.1126 85.1919,140.781 L85.1919,146.6314 C85.2639,147.8197 85.9201,148.4688 87.1617,148.5808 C88.7652,148.5808 89.568,147.763 89.568,146.1294 L89.568,140.9474 C89.6777,140.315 89.1666,139.9442 88.037,139.8325 L88.037,139.2761 L91.592,139.2761 L91.592,139.8325 C90.6441,139.9442 90.2052,140.315 90.2801,140.9474 L90.2801,146.0177 C90.2801,148.0981 89.0569,149.1367 86.6135,149.1367 C84.2443,149.101 83.0398,148.1908 83.0024,146.4078 L83.0024,140.781 C83.0772,140.1126 82.6384,139.7968 81.6908,139.8325 L81.6908,139.2761 Z" id="Fill-10" fill="#9288B1"></path>
                <path d="M137.2751,145.0698 L136.0154,142.062 L134.5408,145.8519 L134.5402,145.8519 L134.1012,146.9645 C134.0422,147.1388 133.9192,147.4467 133.882,147.8557 C133.9192,148.3022 134.1924,148.5258 134.703,148.5258 L135.415,148.5258 L135.415,149.0814 L131.5848,149.0814 L131.5848,148.5258 C132.3508,148.4141 132.9338,147.8004 133.3355,146.6856 L136.4536,139.1094 L137.166,139.1094 L140.7767,147.5771 C140.9936,148.21 141.4321,148.5258 142.0881,148.5258 L142.0881,149.0814 L137.0557,149.0814 L137.0557,148.5258 L137.6022,148.5258 C138.1853,148.5615 138.4589,148.3957 138.424,148.0244 C138.424,147.9478 138.405,147.8004 138.3679,147.5771 C138.405,147.727 138.3869,147.6893 138.3143,147.4654 L137.6022,145.8519 L134.9705,145.8519 L135.2588,145.0698 L137.2751,145.0698 Z" id="Fill-11" fill="#9288B1"></path>
                <path d="M125.7384,140.781 C125.7384,142.9705 125.7384,145.1625 125.7384,147.3537 C125.629,148.2095 126.0842,148.5998 127.1067,148.5258 L127.1067,149.082 L122.1279,149.082 L122.1279,148.5258 C123.1127,148.5618 123.5682,148.2455 123.4959,147.5771 L123.4959,140.781 C123.5682,140.1126 123.1127,139.7968 122.1279,139.832 L122.1279,139.2761 L127.0505,139.2761 C129.3843,139.3138 130.5703,140.1863 130.6075,141.8953 C130.5703,143.4172 129.4407,144.197 127.2138,144.2353 L127.2138,144.2897 C128.528,144.4014 129.3401,145.1109 129.6763,146.4075 C129.9402,148.2117 130.3515,148.4382 130.8325,148.5071 L130.8345,149.0845 C130.8345,149.0845 129.7344,149.0817 129.5019,149.0817 C128.115,149.0817 127.3799,148.394 127.4332,146.7978 C127.482,145.3428 127.1018,144.5505 126.1877,144.417 L126.1877,143.8373 C127.5948,143.7551 128.2669,143.1091 128.1989,141.8953 C128.164,140.6696 127.6529,140.0182 126.6676,139.9442 C126.0468,139.9442 125.7384,140.2223 125.7384,140.781" id="Fill-12" fill="#9288B1"></path>
                <path d="M96.4826,141.0041 L96.4826,143.623 L96.4735,143.623 L96.4735,145.0335 L96.4826,145.0335 L96.4826,147.4654 C96.41,148.21 96.9024,148.5615 97.9597,148.5258 L97.9597,149.0814 L92.8715,149.0814 L92.8715,148.5258 C93.8568,148.5615 94.3144,148.2455 94.2387,147.5771 L94.2387,140.781 C94.3144,140.1123 93.8568,139.7968 92.8715,139.832 L92.8715,139.2764 L97.9061,139.2764 C100.1305,139.3495 101.2791,140.2223 101.3514,141.8956 C101.2791,143.6026 100.1838,144.5128 98.0694,144.6245 L96.9032,144.6245 L96.9032,143.9569 L96.9747,143.9569 C98.2891,143.9569 98.9447,143.286 98.9447,141.95 C98.8725,140.6883 98.3611,140.0185 97.4132,139.9442 C96.793,139.9442 96.4826,140.2977 96.4826,141.0041" id="Fill-13" fill="#9288B1"></path>
                <path d="M76.83,149.1843 C77.9429,147.0748 77.9876,144.1219 78.34,143.413 C76.9643,145.5642 76.2616,147.6828 73.1886,147.6315 C71.7758,147.6077 69.7998,146.6575 69.7329,143.8183 C69.6637,140.2674 73.4576,135.8697 80.0677,135.8867 C80.0677,135.8867 70.8401,133.9291 66.9475,140.5443 C66.9475,140.5443 67.9207,135.9207 74.867,135.1783 C74.867,135.1783 63.055,134.4351 63.3235,145.101 C63.3235,145.101 62.015,142.5019 63.1222,137.9118 C63.1222,137.9118 59.1721,145.2711 63.5253,150.1971 C65.1359,152.0195 67.5717,152.9683 69.9341,153.0655 C73.2223,153.201 75.5212,151.6649 76.83,149.1843" id="Fill-14" fill="#9288B1"></path>
                <path d="M153.559,150.1637 L152.7007,146.5427 L153.2041,146.5427 L153.6574,148.6324 L153.8178,149.4105 C153.8243,149.372 153.8737,149.1231 153.9649,148.6636 L154.4145,146.5427 L154.908,146.5427 L155.3358,148.6454 L155.4755,149.3348 L155.6385,148.6358 L156.1295,146.5427 L156.5972,146.5427 L155.7063,150.1637 L155.2082,150.1637 L154.7575,147.9977 L154.6435,147.3778 L154.069,150.1637 L153.559,150.1637 Z M157.8155,150.1637 L156.9572,146.5427 L157.4606,146.5427 L157.9142,148.6324 L158.0746,149.4105 C158.0808,149.372 158.1302,149.1231 158.2214,148.6636 L158.671,146.5427 L159.1645,146.5427 L159.5923,148.6454 L159.732,149.3348 L159.8953,148.6358 L160.386,146.5427 L160.854,146.5427 L159.9628,150.1637 L159.4647,150.1637 L159.0143,147.9977 L158.9001,147.3778 L158.3255,150.1637 L157.8155,150.1637 Z M162.0723,150.1637 L161.214,146.5427 L161.7174,146.5427 L162.1707,148.6324 L162.3311,149.4105 C162.3376,149.372 162.387,149.1231 162.4782,148.6636 L162.9278,146.5427 L163.4213,146.5427 L163.8491,148.6454 L163.9888,149.3348 L164.1518,148.6358 L164.6428,146.5427 L165.1105,146.5427 L164.2195,150.1637 L163.7215,150.1637 L163.2708,147.9977 L163.1568,147.3778 L162.5823,150.1637 L162.0723,150.1637 Z M165.653,150.1637 L165.653,149.4661 L166.2001,149.4661 L166.2001,150.1637 L165.653,150.1637 Z M169.1963,150.1637 L169.1963,149.6254 C168.9755,150.0361 168.6762,150.2405 168.2975,150.2405 C168.1308,150.2405 167.9746,150.1997 167.8298,150.1186 C167.6846,150.0361 167.5772,149.9335 167.5069,149.8102 C167.4366,149.686 167.3875,149.5347 167.3589,149.3558 C167.3399,149.2348 167.3297,149.044 167.3297,148.7835 L167.3297,146.5427 L167.8116,146.5427 L167.8116,148.5465 C167.8116,148.866 167.8215,149.0825 167.8405,149.1931 C167.8709,149.3544 167.9346,149.48 168.0333,149.5718 C168.1308,149.6639 168.251,149.7104 168.3953,149.7104 C168.5393,149.7104 168.6745,149.6639 168.8003,149.5698 C168.9262,149.4757 169.0158,149.3462 169.0685,149.1846 C169.1204,149.0233 169.1467,148.7869 169.1467,148.4788 L169.1467,146.5427 L169.6286,146.5427 L169.6286,150.1637 L169.1963,150.1637 Z M170.6888,151.5521 L170.6888,146.5427 L171.1267,146.5427 L171.1267,147.0186 C171.2299,146.8347 171.3464,146.6966 171.4771,146.6045 C171.6066,146.5129 171.7642,146.4662 171.9493,146.4662 C172.192,146.4662 172.4054,146.5455 172.5908,146.7048 C172.7759,146.8627 172.9154,147.0872 173.0104,147.3755 C173.1042,147.6652 173.1518,147.9813 173.1518,148.3268 C173.1518,148.6953 173.0996,149.0278 172.9956,149.3243 C172.8919,149.6197 172.7405,149.8462 172.5415,150.0044 C172.3434,150.1614 172.1347,150.2405 171.9159,150.2405 C171.7552,150.2405 171.6112,150.1974 171.4842,150.1115 C171.3566,150.0256 171.2526,149.9171 171.1704,149.7861 L171.1704,151.5521 L170.6888,151.5521 Z M171.1267,148.3753 C171.1267,148.8396 171.2007,149.1826 171.3475,149.4043 C171.4952,149.6268 171.6741,149.7382 171.8839,149.7382 C172.0973,149.7382 172.2796,149.6234 172.431,149.3929 C172.5835,149.1625 172.6591,148.807 172.6591,148.3243 C172.6591,147.8639 172.5852,147.5198 172.4366,147.2905 C172.2878,147.0617 172.1109,146.9475 171.9046,146.9475 C171.7005,146.9475 171.5199,147.0697 171.3629,147.3126 C171.2052,147.5569 171.1267,147.9104 171.1267,148.3753 Z M175.8923,148.8382 L176.3629,148.9221 C176.311,149.3348 176.1795,149.6571 175.9669,149.8907 C175.7543,150.1243 175.4927,150.2405 175.1837,150.2405 C174.7959,150.2405 174.4838,150.0792 174.2485,149.7555 C174.0124,149.4326 173.8945,148.9697 173.8945,148.3671 C173.8945,147.9765 173.9455,147.636 174.047,147.3432 C174.1482,147.0512 174.3024,146.8313 174.5102,146.6861 C174.7174,146.5393 174.9427,146.4662 175.1871,146.4662 C175.4944,146.4662 175.7472,146.5651 175.9422,146.7638 C176.1384,146.9628 176.2642,147.2454 176.3192,147.6105 L175.8541,147.7012 C175.8093,147.458 175.7308,147.2757 175.6168,147.1524 C175.5037,147.03 175.3668,146.9685 175.2064,146.9685 C174.9637,146.9685 174.7667,147.079 174.6142,147.3001 C174.4628,147.5218 174.3871,147.871 174.3871,148.3498 C174.3871,148.8362 174.4603,149.188 174.606,149.408 C174.7528,149.6279 174.9436,149.7382 175.178,149.7382 C175.3676,149.7382 175.5255,149.6648 175.6514,149.5171 C175.7781,149.3708 175.8586,149.1443 175.8923,148.8382 Z M179.015,148.9918 L179.513,149.0757 C179.4356,149.444 179.2905,149.7314 179.0788,149.9349 C178.8673,150.1382 178.5972,150.2405 178.2681,150.2405 C177.8539,150.2405 177.5254,150.0775 177.2827,149.7521 C177.0401,149.4278 176.919,148.9706 176.919,148.3838 C176.919,147.7769 177.0409,147.3044 177.2864,146.9696 C177.5319,146.6334 177.8502,146.4662 178.2417,146.4662 C178.6201,146.4662 178.9291,146.63 179.1692,146.9594 C179.409,147.2885 179.5298,147.7511 179.5298,148.3478 C179.5298,148.3838 179.5286,148.4385 179.5266,148.5105 L177.4114,148.5105 C177.4298,148.9068 177.5174,149.2115 177.6759,149.4221 C177.8338,149.6322 178.0316,149.7382 178.2681,149.7382 C178.4441,149.7382 178.5946,149.6787 178.7188,149.5602 C178.8435,149.4417 178.9421,149.2523 179.015,148.9918 Z M177.4389,148.0082 L179.0207,148.0082 C178.9994,147.7032 178.9384,147.4753 178.839,147.3231 C178.6867,147.0872 178.4877,146.9685 178.2442,146.9685 C178.0234,146.9685 177.8383,147.0626 177.6878,147.2508 C177.5384,147.4393 177.4554,147.6916 177.4389,148.0082 Z M180.4201,150.1637 L180.4201,146.5427 L180.8524,146.5427 L180.8524,147.0977 C180.9627,146.8406 181.065,146.6711 181.1588,146.5892 C181.2529,146.5067 181.3558,146.4662 181.4684,146.4662 C181.6305,146.4662 181.7958,146.5311 181.9636,146.6606 L181.7921,147.2267 C181.6753,147.1428 181.5585,147.1011 181.4417,147.1011 C181.3368,147.1011 181.243,147.1417 181.16,147.2219 C181.0769,147.3021 181.0177,147.4138 180.9822,147.5569 C180.9284,147.7741 180.902,148.0125 180.902,148.2721 L180.902,150.1637 L180.4201,150.1637 Z M184.4079,149.7104 C184.229,149.9043 184.0567,150.0404 183.8914,150.1206 C183.7264,150.2011 183.5496,150.2405 183.3596,150.2405 C183.0478,150.2405 182.8077,150.1441 182.6399,149.9497 C182.4721,149.7569 182.3882,149.5094 182.3882,149.2081 C182.3882,149.0315 182.4202,148.8694 182.4832,148.7234 C182.547,148.5768 182.63,148.4606 182.7321,148.3719 C182.8352,148.2837 182.95,148.216 183.0787,148.1709 C183.1737,148.1392 183.3168,148.1094 183.5073,148.0788 C183.8962,148.0207 184.1834,147.9501 184.3668,147.8685 C184.3685,147.7848 184.3696,147.7313 184.3696,147.7094 C184.3696,147.4603 184.3237,147.2848 184.2324,147.1822 C184.1097,147.0439 183.926,146.9753 183.6836,146.9753 C183.4563,146.9753 183.2885,147.0266 183.1811,147.1278 C183.0725,147.229 182.9931,147.4081 182.941,147.6661 L182.4701,147.5827 C182.5132,147.3256 182.5835,147.1173 182.6819,146.9594 C182.7805,146.8012 182.9228,146.6799 183.1091,146.594 C183.2939,146.509 183.5102,146.4662 183.7548,146.4662 C183.9974,146.4662 184.1953,146.5022 184.3475,146.5753 C184.4989,146.649 184.6111,146.7397 184.6823,146.8497 C184.7537,146.9605 184.8036,147.0997 184.8328,147.2684 C184.8484,147.373 184.8566,147.5615 184.8566,147.8322 L184.8566,148.6463 C184.8566,149.2152 184.8665,149.5741 184.8867,149.7266 C184.9059,149.8788 184.9459,150.0245 185.0043,150.1637 L184.5009,150.1637 C184.4524,150.0347 184.4215,149.8836 184.4079,149.7104 Z M184.3696,148.3498 C184.1944,148.4405 183.9317,148.5176 183.5813,148.58 C183.3823,148.616 183.242,148.6568 183.1598,148.7024 C183.0779,148.7475 183.015,148.8141 182.9702,148.8997 C182.9254,148.9873 182.9027,149.0834 182.9027,149.1908 C182.9027,149.3524 182.9512,149.4882 183.0487,149.5962 C183.1462,149.7045 183.2885,149.7592 183.4756,149.7592 C183.6607,149.7592 183.8259,149.7079 183.9708,149.6044 C184.1148,149.5021 184.2217,149.3615 184.2894,149.1837 C184.341,149.0454 184.3668,148.8416 184.3668,148.5729 L184.3696,148.3498 Z M185.709,148.6636 L185.709,148.0499 L187.1975,148.0499 L187.1975,148.6636 L185.709,148.6636 Z M189.8606,150.1637 L189.8606,149.7045 C189.6809,150.0616 189.4164,150.2405 189.0672,150.2405 C188.8407,150.2405 188.6329,150.1614 188.4441,150.0021 C188.2545,149.8442 188.1074,149.6217 188.0028,149.3385 C187.8985,149.0536 187.8466,148.7268 187.8466,148.3566 C187.8466,147.9963 187.8942,147.6695 187.9881,147.3755 C188.083,147.0827 188.2242,146.8568 188.4132,146.7009 C188.6012,146.5441 188.8127,146.4662 189.0451,146.4662 C189.2166,146.4662 189.3688,146.5129 189.502,146.6045 C189.6353,146.6966 189.7438,146.8171 189.828,146.9648 L189.828,145.1685 L190.3096,145.1685 L190.3096,150.1637 L189.8606,150.1637 Z M188.339,148.358 C188.339,148.8209 188.4158,149.1659 188.57,149.3952 C188.7231,149.6245 188.9048,149.7382 189.1137,149.7382 C189.3243,149.7382 189.5029,149.6288 189.6509,149.4105 C189.7977,149.1917 189.8717,148.858 189.8717,148.4093 C189.8717,147.9161 189.7968,147.5535 189.6463,147.3222 C189.4967,147.0906 189.3115,146.9753 189.0916,146.9753 C188.8773,146.9753 188.6984,147.0861 188.5544,147.3078 C188.4113,147.53 188.339,147.8801 188.339,148.358 Z M193.3127,148.9918 L193.8107,149.0757 C193.7333,149.444 193.5882,149.7314 193.3764,149.9349 C193.165,150.1382 192.8948,150.2405 192.5657,150.2405 C192.1516,150.2405 191.823,150.0775 191.5804,149.7521 C191.3378,149.4278 191.2167,148.9706 191.2167,148.3838 C191.2167,147.7769 191.3386,147.3044 191.5841,146.9696 C191.8296,146.6334 192.1479,146.4662 192.5394,146.4662 C192.9178,146.4662 193.2268,146.63 193.4669,146.9594 C193.7067,147.2885 193.8271,147.7511 193.8271,148.3478 C193.8271,148.3838 193.8263,148.4385 193.8243,148.5105 L191.7091,148.5105 C191.7275,148.9068 191.8151,149.2115 191.9736,149.4221 C192.1315,149.6322 192.3293,149.7382 192.5657,149.7382 C192.7418,149.7382 192.8923,149.6787 193.0161,149.5602 C193.1412,149.4417 193.2398,149.2523 193.3127,148.9918 Z M191.7366,148.0082 L193.3183,148.0082 C193.2971,147.7032 193.2361,147.4753 193.1366,147.3231 C192.9841,147.0872 192.7854,146.9685 192.5419,146.9685 C192.3211,146.9685 192.136,147.0626 191.9855,147.2508 C191.8358,147.4393 191.753,147.6916 191.7366,148.0082 Z M194.7232,150.1637 L194.7232,146.5427 L195.1557,146.5427 L195.1557,147.0569 C195.3635,146.6626 195.6648,146.4662 196.058,146.4662 C196.2292,146.4662 196.386,146.5056 196.5294,146.5838 C196.6726,146.6615 196.7803,146.7652 196.8514,146.8919 C196.9226,147.0186 196.9727,147.1697 197.0011,147.3443 C197.0184,147.458 197.0275,147.657 197.0275,147.9405 L197.0275,150.1637 L196.5458,150.1637 L196.5458,147.9637 C196.5458,147.7137 196.5274,147.5266 196.4903,147.4033 C196.4529,147.28 196.386,147.1811 196.2913,147.1068 C196.1963,147.0334 196.0844,146.9965 195.9565,146.9965 C195.7521,146.9965 195.5761,147.079 195.4276,147.2454 C195.279,147.4101 195.2048,147.7256 195.2048,148.1885 L195.2048,150.1637 L194.7232,150.1637 Z M199.1166,149.6163 L199.1824,150.158 C199.0474,150.194 198.9261,150.2127 198.8201,150.2127 C198.646,150.2127 198.5111,150.1776 198.4144,150.1067 C198.3186,150.0361 198.2509,149.944 198.2118,149.8289 C198.1727,149.7141 198.1534,149.472 198.1534,149.1035 L198.1534,147.0175 L197.7976,147.0175 L197.7976,146.5427 L198.1534,146.5427 L198.1534,145.6478 L198.635,145.279 L198.635,146.5427 L199.1166,146.5427 L199.1166,147.0175 L198.635,147.0175 L198.635,149.1381 C198.635,149.3136 198.6432,149.4264 198.6605,149.4768 C198.6769,149.5267 198.7044,149.5664 198.7427,149.5962 C198.781,149.6254 198.8357,149.6404 198.9068,149.6404 C198.9598,149.6404 199.0301,149.6322 199.1166,149.6163 Z M201.7514,149.7104 C201.5728,149.9043 201.4005,150.0404 201.2352,150.1206 C201.0702,150.2011 200.8931,150.2405 200.7034,150.2405 C200.3916,150.2405 200.1515,150.1441 199.9837,149.9497 C199.8156,149.7569 199.732,149.5094 199.732,149.2081 C199.732,149.0315 199.764,148.8694 199.827,148.7234 C199.8907,148.5768 199.9735,148.4606 200.0758,148.3719 C200.179,148.2837 200.2938,148.216 200.4225,148.1709 C200.5175,148.1392 200.6606,148.1094 200.8511,148.0788 C201.2397,148.0207 201.5272,147.9501 201.7103,147.8685 C201.7123,147.7848 201.7131,147.7313 201.7131,147.7094 C201.7131,147.4603 201.6675,147.2848 201.5762,147.1822 C201.4532,147.0439 201.2698,146.9753 201.0271,146.9753 C200.8001,146.9753 200.6323,147.0266 200.5246,147.1278 C200.4163,147.229 200.3369,147.4081 200.2847,147.6661 L199.8139,147.5827 C199.857,147.3256 199.9273,147.1173 200.0257,146.9594 C200.1243,146.8012 200.2666,146.6799 200.4526,146.594 C200.6377,146.509 200.8537,146.4662 201.0983,146.4662 C201.3409,146.4662 201.5388,146.5022 201.6913,146.5753 C201.8427,146.649 201.9549,146.7397 202.0261,146.8497 C202.0972,146.9605 202.1474,147.0997 202.1766,147.2684 C202.1919,147.373 202.2001,147.5615 202.2001,147.8322 L202.2001,148.6463 C202.2001,149.2152 202.2103,149.5741 202.2302,149.7266 C202.2497,149.8788 202.2897,150.0245 202.3481,150.1637 L201.8444,150.1637 C201.7962,150.0347 201.765,149.8836 201.7514,149.7104 Z M201.7131,148.3498 C201.5379,148.4405 201.2755,148.5176 200.9248,148.58 C200.7261,148.616 200.5858,148.6568 200.5036,148.7024 C200.4214,148.7475 200.3584,148.8141 200.3139,148.8997 C200.2692,148.9873 200.2465,149.0834 200.2465,149.1908 C200.2465,149.3524 200.2947,149.4882 200.3925,149.5962 C200.49,149.7045 200.6323,149.7592 200.8194,149.7592 C201.0045,149.7592 201.1694,149.7079 201.3146,149.6044 C201.4586,149.5021 201.5654,149.3615 201.6329,149.1837 C201.6848,149.0454 201.7103,148.8416 201.7103,148.5729 L201.7131,148.3498 Z M203.2331,150.1637 L203.2331,145.1685 L203.715,145.1685 L203.715,150.1637 L203.2331,150.1637 Z M204.9012,150.1637 L204.9012,149.4661 L205.4483,149.4661 L205.4483,150.1637 L204.9012,150.1637 Z M208.4446,148.8382 L208.9151,148.9221 C208.8632,149.3348 208.7317,149.6571 208.5191,149.8907 C208.3065,150.1243 208.0449,150.2405 207.7359,150.2405 C207.3478,150.2405 207.036,150.0792 206.8007,149.7555 C206.5646,149.4326 206.4467,148.9697 206.4467,148.3671 C206.4467,147.9765 206.4977,147.636 206.5992,147.3432 C206.7004,147.0512 206.8546,146.8313 207.0624,146.6861 C207.2693,146.5393 207.495,146.4662 207.7393,146.4662 C208.0466,146.4662 208.2994,146.5651 208.4944,146.7638 C208.6906,146.9628 208.8165,147.2454 208.8715,147.6105 L208.4063,147.7012 C208.3615,147.458 208.283,147.2757 208.169,147.1524 C208.0556,147.03 207.919,146.9685 207.7586,146.9685 C207.5159,146.9685 207.3189,147.079 207.1664,147.3001 C207.015,147.5218 206.9394,147.871 206.9394,148.3498 C206.9394,148.8362 207.0125,149.188 207.1582,149.408 C207.305,149.6279 207.4958,149.7382 207.7302,149.7382 C207.9199,149.7382 208.0778,149.6648 208.2036,149.5171 C208.3303,149.3708 208.4105,149.1443 208.4446,148.8382 Z M209.4492,148.3532 C209.4492,147.6848 209.5951,147.1893 209.888,146.8673 C210.1315,146.5997 210.4297,146.4662 210.7809,146.4662 C211.1706,146.4662 211.4895,146.6289 211.7378,146.9543 C211.985,147.2791 212.1092,147.729 212.1092,148.3022 C212.1092,148.7673 212.0545,149.1327 211.9448,149.3986 C211.8354,149.6648 211.6758,149.8717 211.466,150.0194 C211.2571,150.1671 211.0283,150.2405 210.7809,150.2405 C210.3835,150.2405 210.0623,150.0792 209.8168,149.7546 C209.5713,149.4301 209.4492,148.9629 209.4492,148.3532 Z M209.9418,148.3546 C209.9418,148.8175 210.0212,149.1639 210.1799,149.3929 C210.3395,149.6234 210.5391,149.7382 210.7809,149.7382 C211.0201,149.7382 211.2188,149.6234 211.3784,149.3918 C211.5372,149.1605 211.6165,148.8079 211.6165,148.3348 C211.6165,147.8883 211.5363,147.5501 211.3767,147.3211 C211.2171,147.0906 211.0181,146.9753 210.7809,146.9753 C210.5391,146.9753 210.3395,147.0895 210.1799,147.3185 C210.0212,147.5473 209.9418,147.8931 209.9418,148.3546 Z M212.9777,150.1637 L212.9777,146.5427 L213.4103,146.5427 L213.4103,147.0546 C213.4987,146.878 213.6172,146.7346 213.7649,146.628 C213.9129,146.5197 214.0807,146.4662 214.2695,146.4662 C214.4792,146.4662 214.6519,146.522 214.7859,146.6323 C214.92,146.744 215.0147,146.899 215.0694,147.0986 C215.2956,146.6765 215.5884,146.4662 215.9498,146.4662 C216.2325,146.4662 216.4504,146.5651 216.6021,146.7638 C216.7543,146.9628 216.8309,147.2684 216.8309,147.6811 L216.8309,150.1637 L216.3492,150.1637 L216.3492,147.8849 C216.3492,147.6408 216.3328,147.4637 216.3016,147.3557 C216.2707,147.2474 216.214,147.1615 216.1313,147.0952 C216.0491,147.0291 215.9524,146.9965 215.8421,146.9965 C215.6414,146.9965 215.4753,147.0813 215.3432,147.2497 C215.2109,147.4197 215.1451,147.6907 215.1451,148.0629 L215.1451,150.1637 L214.6635,150.1637 L214.6635,147.814 C214.6635,147.5419 214.6244,147.337 214.5458,147.2009 C214.4673,147.0651 214.3389,146.9965 214.1609,146.9965 C214.026,146.9965 213.901,147.0416 213.7862,147.1323 C213.6711,147.2233 213.588,147.3557 213.5361,147.5314 C213.4848,147.7055 213.4593,147.9583 213.4593,148.2871 L213.4593,150.1637 L212.9777,150.1637 Z" id="Fill-15" fill="#9288B1"></path>
                <g id="编组" transform="translate(162.122100, 136.287300)" fill="#9288B1">
                    <path d="M0.247,7.3833 L0.247,0.401 L3.9043,0.401 L3.9043,1.5811 L1.325,1.5811 L1.325,3.2388 L3.5547,3.2388 L3.5547,4.4186 L1.325,4.4186 L1.325,7.3833 L0.247,7.3833 Z M5.2008,0.401 L7.1607,0.401 C7.6032,0.401 7.9399,0.4447 8.1718,0.534 C8.4828,0.6547 8.7504,0.869 8.972,1.178 C9.1951,1.485 9.3635,1.8623 9.4803,2.309 C9.5954,2.7541 9.6538,3.3054 9.6538,3.9588 C9.6538,4.5342 9.5991,5.0283 9.4899,5.4444 C9.3575,5.9527 9.1679,6.364 8.9213,6.6778 C8.7353,6.917 8.4839,7.1021 8.1681,7.2351 C7.9314,7.3343 7.6154,7.3833 7.2191,7.3833 L5.2008,7.3833 L5.2008,0.401 Z M6.2788,1.5811 L6.2788,6.2033 L7.0776,6.2033 C7.3764,6.2033 7.5918,6.1806 7.7245,6.1364 C7.8991,6.0794 8.0428,5.9819 8.1571,5.8458 C8.2719,5.7092 8.3649,5.4847 8.4369,5.1726 C8.51,4.8605 8.546,4.4333 8.546,3.8936 C8.546,3.3539 8.51,2.9412 8.4369,2.652 C8.3649,2.3629 8.2634,2.1381 8.1333,1.9757 C8.0034,1.8147 7.8385,1.7044 7.6378,1.6477 C7.4892,1.6035 7.1956,1.5811 6.7593,1.5811 L6.2788,1.5811 Z M15.7769,7.3833 L14.6161,7.3833 L14.1563,5.7934 L12.0215,5.7934 L11.5793,7.3833 L10.4395,7.3833 L12.5063,0.401 L13.6447,0.401 L15.7769,7.3833 Z M13.8068,4.6136 L13.0672,2.0295 L12.3487,4.6136 L13.8068,4.6136 Z" id="Fill-16"></path>
                    <path d="M29.6681,7.1577 C27.9063,7.1577 26.478,5.7296 26.478,3.9676 C26.478,2.2061 27.9063,0.7772 29.6681,0.7772 L29.6681,1.559 C28.5577,1.559 27.6234,2.3099 27.3442,3.3318 L29.261,3.3318 L29.261,4.1365 L27.2654,4.1365 C27.3519,5.3883 28.3942,6.3765 29.6681,6.3765 L29.6681,7.1577 Z M42.3976,2.2512 L42.3976,1.7163 L45.0401,1.7163 L45.0401,2.1492 C44.7804,2.4584 44.5213,2.8692 44.2668,3.3814 C44.0114,3.8947 43.8146,4.4223 43.6738,4.9645 C43.5748,5.3441 43.5094,5.7639 43.4819,6.2183 L42.9682,6.2183 C42.9733,5.8594 43.0368,5.4246 43.157,4.9172 C43.2772,4.4081 43.4504,3.9166 43.6757,3.4449 C43.9011,2.9732 44.1409,2.5749 44.3952,2.2512 L42.3976,2.2512 Z M38.9515,5.161 L39.4309,5.117 C39.4714,5.3696 39.5496,5.5519 39.6644,5.6655 C39.7795,5.7784 39.9272,5.8359 40.1081,5.8359 C40.262,5.8359 40.3972,5.7954 40.514,5.7171 C40.6305,5.6389 40.7266,5.5337 40.8,5.4016 C40.8731,5.2704 40.9349,5.0915 40.9854,4.8673 C41.0347,4.6434 41.0599,4.4149 41.0599,4.1833 C41.0599,4.1584 41.0594,4.1201 41.0577,4.0702 C40.9576,4.2485 40.8204,4.3939 40.6472,4.505 C40.474,4.6142 40.2852,4.6709 40.0843,4.6709 C39.7461,4.6709 39.4609,4.5331 39.2268,4.2604 C38.9943,3.988 38.877,3.6266 38.877,3.1784 C38.877,2.7161 38.9986,2.3439 39.2429,2.0616 C39.4861,1.7807 39.7923,1.6398 40.1602,1.6398 C40.4247,1.6398 40.6673,1.7203 40.8884,1.8796 C41.1076,2.0386 41.2745,2.2671 41.3885,2.5619 C41.5019,2.8575 41.5597,3.2844 41.5597,3.844 C41.5597,4.4268 41.5033,4.8908 41.3905,5.2361 C41.2774,5.5811 41.1081,5.8441 40.8839,6.0244 C40.6611,6.205 40.3989,6.2951 40.0984,6.2951 C39.7784,6.2951 39.5173,6.1959 39.3152,5.9975 C39.1142,5.8002 38.9921,5.5204 38.9515,5.161 Z M41.0004,3.1509 C41.0004,2.8298 40.9239,2.5749 40.7722,2.387 C40.6206,2.1999 40.436,2.1044 40.2192,2.1044 C39.995,2.1044 39.8008,2.2061 39.6367,2.4085 C39.4731,2.6112 39.3909,2.8737 39.3909,3.1971 C39.3909,3.4863 39.4694,3.7221 39.6239,3.9024 C39.7798,4.0835 39.974,4.1742 40.205,4.1742 C40.4372,4.1742 40.6274,4.0835 40.7765,3.9024 C40.9259,3.7221 41.0004,3.4707 41.0004,3.1509 Z M37.2686,6.2183 L36.7666,6.2183 L36.7666,2.6506 C36.6458,2.7796 36.486,2.908 36.2909,3.0364 C36.0948,3.1648 35.9179,3.2615 35.7617,3.3255 L35.7617,2.7838 C36.0423,2.6376 36.2878,2.4587 36.4984,2.2487 C36.7076,2.04 36.8579,1.8368 36.9454,1.6398 L37.2686,1.6398 L37.2686,6.2183 Z M31.893,3.9684 C31.893,3.4301 31.9429,2.995 32.0415,2.6665 C32.1407,2.3357 32.2887,2.0823 32.4846,1.9051 C32.679,1.7285 32.9262,1.6398 33.223,1.6398 C33.4421,1.6398 33.6349,1.6888 33.8004,1.788 C33.9662,1.8861 34.1031,2.0295 34.2097,2.2138 C34.3152,2.3989 34.3999,2.6257 34.4609,2.8918 C34.5221,3.1572 34.553,3.5169 34.553,3.9684 C34.553,4.5033 34.5031,4.9359 34.4056,5.2653 C34.3081,5.5944 34.1593,5.8487 33.9643,6.0272 C33.7689,6.205 33.5218,6.2951 33.223,6.2951 C32.8301,6.2951 32.5189,6.1389 32.2963,5.8251 C32.0262,5.445 31.893,4.8248 31.893,3.9684 Z M32.4066,3.9707 C32.4066,4.721 32.4851,5.2199 32.6419,5.466 C32.7989,5.7126 32.9928,5.8359 33.223,5.8359 C33.4532,5.8359 33.6482,5.712 33.8041,5.4651 C33.9611,5.2171 34.0391,4.7188 34.0391,3.9707 C34.0391,3.2198 33.96,2.7212 33.8041,2.4757 C33.6476,2.2288 33.4526,2.1044 33.2173,2.1044 C32.9871,2.1044 32.8012,2.2138 32.6643,2.4318 C32.4922,2.7073 32.4066,3.2224 32.4066,3.9707 Z M24.4033,7.1577 C22.6415,7.1577 21.2129,5.7299 21.2129,3.9676 C21.2129,2.2061 22.6415,0.7772 24.4033,0.7772 L24.4033,1.559 C23.0727,1.559 21.9941,2.6376 21.9941,3.9676 C21.9941,5.2982 23.0727,6.3765 24.4033,6.3765 L24.4033,7.1577 Z" id="Fill-17"></path>
                </g>
            </g>
        </g>
    </g>
</svg>