<?xml version="1.0" encoding="UTF-8"?>
<svg width="72px" height="33px" viewBox="0 0 72 33" version="1.1" xmlns="http://www.w3.org/2000/svg"
     xmlns:xlink="http://www.w3.org/1999/xlink">
    <!-- Generator: Sketch 58 (84663) - https://sketch.com -->
    <title>Group</title>
    <desc>Created with Sketch.</desc>
    <g id="Page-1" stroke="none" stroke-width="1" fill="none" fill-rule="evenodd">
        <g id="爱齐logo" transform="translate(-58.000000, -36.000000)" fill="#1D97D5">
            <g id="Group" transform="translate(58.353400, 36.225600)">
                <path d="M22.236,20.636 L10.432,20.636 C12.992,23.566 15.28,25.67 17.295,26.949 C19.673,25.67 21.687,23.93 23.334,21.734 C23.883,21.003 23.516,20.636 22.236,20.636 L22.236,20.636 Z M27.177,1.969 C20.222,2.885 12.079,3.252 2.745,3.067 C1.83,2.518 1.83,1.969 2.745,1.42 C11.53,1.605 19.581,1.238 26.903,0.322 C28.001,0.689 28.09,1.238 27.177,1.969 L27.177,1.969 Z M4.118,14.597 L10.157,14.597 L10.432,11.852 C10.981,10.938 11.53,10.938 12.079,11.852 L11.804,14.597 L25.53,14.597 C26.444,15.146 26.444,15.695 25.53,16.244 L11.53,16.244 L10.706,18.989 L22.785,18.989 C25.53,18.989 26.261,20.087 24.981,22.283 C22.967,25.029 20.953,26.861 18.942,27.774 C22.051,29.236 25.804,30.152 30.196,30.519 C30.928,31.25 30.836,31.799 29.922,32.165 C25.163,31.799 20.953,30.7 17.295,28.871 C13.085,30.519 8.967,31.616 4.942,32.165 C4.026,31.799 3.934,31.25 4.667,30.519 C8.693,29.97 12.353,29.054 15.648,27.774 C13.451,26.311 11.345,24.39 9.334,22.009 C7.138,25.12 4.575,27.409 1.648,28.871 C0.732,28.871 0.457,28.412 0.824,27.499 C5.947,24.39 8.967,20.636 9.883,16.244 L4.118,16.244 C3.202,15.695 3.202,15.146 4.118,14.597 L4.118,14.597 Z M27.177,9.107 C29.922,9.107 30.561,11.213 29.099,15.421 C28.183,15.969 27.633,15.787 27.451,14.871 C28.732,12.311 28.549,10.938 26.903,10.754 L3.02,10.754 C2.104,10.754 1.648,11.303 1.648,12.401 L1.648,14.871 C1.098,15.787 0.549,15.787 0,14.871 L0,12.126 C0,10.115 0.824,9.107 2.471,9.107 L7.138,9.107 C6.589,7.278 6.04,6.087 5.49,5.538 C5.49,4.625 5.947,4.35 6.863,4.715 C7.594,5.63 8.236,7.095 8.785,9.107 L14.549,9.107 C14.183,7.644 13.633,6.272 12.903,4.989 C12.903,4.075 13.359,3.801 14.275,4.165 C15.373,5.997 16.012,7.644 16.196,9.107 L20.314,9.107 C21.412,7.644 22.326,5.905 23.059,3.891 C23.973,3.16 24.522,3.342 24.706,4.44 C23.973,6.272 23.15,7.826 22.236,9.107 L27.177,9.107 Z"
                      id="Fill-1"></path>
                <path d="M61.3448,17.342 L61.3448,31.891 C61.8938,32.805 62.4438,32.805 62.9918,31.891 L62.9918,17.342 C62.4438,16.428 61.8938,16.428 61.3448,17.342"
                      id="Fill-3"></path>
                <path d="M49.8155,17.342 C49.2665,16.428 48.7175,16.428 48.1685,17.342 L48.1685,20.636 C48.3505,25.395 47.0705,28.871 44.3255,31.068 C43.9585,31.799 44.2325,32.255 45.1485,32.44 C48.4425,30.244 49.9975,26.311 49.8155,20.636 L49.8155,17.342 Z"
                      id="Fill-5"></path>
                <path d="M55.8546,11.028 C52.7426,9.199 50.3646,7.278 48.7176,5.263 L61.8936,5.263 C60.0626,7.826 58.0506,9.748 55.8546,11.028 M70.6786,15.42 C66.4676,14.871 62.0766,13.683 57.5016,11.852 C60.0626,10.205 62.2586,8.008 64.0896,5.263 L69.5806,5.263 C70.3116,4.715 70.3116,4.165 69.5806,3.616 L58.1696,3.616 C58.2926,3.312 58.3646,2.98 58.3646,2.632 C58.3646,1.178 57.1856,0 55.7326,0 C54.2796,0 53.1006,1.178 53.1006,2.632 C53.1006,2.98 53.1716,3.312 53.2946,3.616 L40.4826,3.616 C39.7486,4.165 39.7486,4.715 40.4826,5.263 L46.5216,5.263 C49.2666,8.375 51.9186,10.664 54.4826,12.126 C50.6386,14.14 45.7886,15.331 39.9326,15.695 C39.0166,16.428 39.1096,16.978 40.2076,17.342 C46.4286,16.793 51.7376,15.42 56.1286,13.224 C61.6196,15.42 66.3756,16.703 70.4036,17.068 C71.3176,16.703 71.4096,16.154 70.6786,15.42"
                      id="Fill-7"></path>
            </g>
        </g>
    </g>
</svg>