<svg xmlns="http://www.w3.org/2000/svg" xmlns:xlink="http://www.w3.org/1999/xlink" xml:space="preserve"
     width="128px" height="128px" viewBox="0 0 57.1 57.2">
<path d="M56.1 28.6c0 15.2-12.3 27.6-27.6 27.6S1 43.8 1 28.6C1 13.4 13.3 1 28.6 1s27.5 12.4 27.5 27.6zM28.6 49C39.9 49 49 39.9 49 28.6m0 0V10.1M28.6 8.2c-11.3 0-20.4 9.1-20.4 20.4m-.1 0v18.5M41.9 4.5v24.1c0 7.4-6 13.4-13.4 13.4V15.3c-7.4 0-13.4 6-13.4 13.4v24.1"
      fill="none" stroke="#282828" stroke-width="2" stroke-miterlimit="10">
</path>
</svg>
